<?xml version="1.0" encoding="utf-8"?>
<!-- Generator: Adobe Illustrator 16.0.0, SVG Export Plug-In . SVG Version: 6.00 Build 0)  -->
<!DOCTYPE svg PUBLIC "-//W3C//DTD SVG 1.1//EN" "http://www.w3.org/Graphics/SVG/1.1/DTD/svg11.dtd">
<svg version="1.1" id="Layer_1" xmlns="http://www.w3.org/2000/svg" xmlns:xlink="http://www.w3.org/1999/xlink" x="0px" y="0px"
	 width="200px" height="200px" viewBox="0 0 200 200" enable-background="new 0 0 200 200" xml:space="preserve">
<g>
	<g>
		<path fill="#CFE2F3" d="M182.036,49.555c-0.985-1.616-2.415-2.765-4.056-3.396L104.285,1.207c-2.64-1.61-5.95-1.61-8.589,0
			L21.992,46.159c-1.64,0.631-3.093,1.78-4.078,3.396c-0.803,1.316-1.084,2.767-1.099,4.204c-0.003,0.086,0.092,0.172,0.092,0.259
			v91.963c0,2.879,1.4,5.549,3.857,7.047l74.989,45.765c1.319,0.805,2.784,1.208,4.273,1.208s2.966-0.402,4.285-1.208l74.933-45.765
			c2.457-1.498,3.851-4.168,3.851-7.047V54.018c0-0.087,0.094-0.172,0.092-0.259C183.17,52.322,182.839,50.871,182.036,49.555z
			 M91.746,22.957v61.958L40.95,53.936L91.746,22.957z M91.746,177.043l-58.331-35.695V68.556l0,0l58.331,35.696V177.043z
			 M108.254,22.957l50.796,30.979l-50.796,30.979V22.957z M166.585,141.348l-58.331,35.695v-72.791l58.331-35.696V141.348z"/>
	</g>
</g>
<g>
	<g>
		<path fill="#CFE2F3" d="M60.049,124.397c-2.403-3.874-7.491-5.067-11.365-2.664l-3.742,2.321
			c-3.874,2.402-5.066,7.49-2.664,11.365c1.563,2.519,4.261,3.904,7.023,3.904c1.484,0,2.988-0.4,4.343-1.241l3.741-2.321
			C61.259,133.359,62.451,128.271,60.049,124.397z"/>
	</g>
</g>
<g>
	<g>
		<path fill="#CFE2F3" d="M154.695,123.709l-3.746-2.314c-3.879-2.396-8.965-1.193-11.359,2.684
			c-2.396,3.879-1.195,8.965,2.684,11.361l3.744,2.314c1.353,0.834,2.852,1.232,4.33,1.232c2.768,0,5.47-1.391,7.031-3.916
			C159.775,131.191,158.574,126.105,154.695,123.709z"/>
	</g>
</g>
<g>
	<g>
		<path fill="#CFE2F3" d="M84.366,109.314c-2.402-3.873-7.491-5.067-11.365-2.664l-3.741,2.32c-3.875,2.402-5.067,7.49-2.666,11.365
			c1.563,2.52,4.261,3.904,7.023,3.904c1.484,0,2.988-0.4,4.342-1.24l3.742-2.32C85.577,118.278,86.77,113.189,84.366,109.314z"/>
	</g>
</g>
<g>
	<g>
		<path fill="#CFE2F3" d="M130.353,108.668l-3.745-2.313c-3.879-2.396-8.965-1.194-11.361,2.683
			c-2.396,3.879-1.195,8.965,2.684,11.361l3.744,2.314c1.353,0.836,2.852,1.233,4.332,1.233c2.766,0,5.469-1.391,7.029-3.917
			C135.432,116.151,134.23,111.064,130.353,108.668z"/>
	</g>
</g>
</svg>
