<?xml version="1.0" encoding="iso-8859-1"?>
<!-- Generator: Adobe Illustrator 19.0.0, SVG Export Plug-In . SVG Version: 6.00 Build 0)  -->
<svg version="1.1" id="Layer_1" xmlns="http://www.w3.org/2000/svg" xmlns:xlink="http://www.w3.org/1999/xlink" x="0px" y="0px"
	 viewBox="0 0 511.998 511.998" style="enable-background:new 0 0 511.998 511.998;" xml:space="preserve">
<g>
	<g>
		<path d="M466.011,126.861c-2.523-4.136-6.183-7.078-10.381-8.693L266.97,3.09c-6.758-4.121-15.233-4.121-21.99,0L56.298,118.167
			c-4.197,1.616-7.917,4.557-10.44,8.693c-2.054,3.368-2.774,7.083-2.812,10.761c-0.007,0.221,0.235,0.441,0.235,0.664v235.425
			c0,7.368,3.584,14.204,9.874,18.04l191.97,117.156c3.378,2.06,7.127,3.091,10.939,3.091c3.812,0,7.593-1.03,10.971-3.091
			l191.826-117.156c6.29-3.836,9.857-10.673,9.857-18.04V138.286c0-0.223,0.241-0.442,0.234-0.664
			C468.914,133.944,468.065,130.229,466.011,126.861z M234.868,58.768v158.614l-130.036-79.308L234.868,58.768z M234.868,453.23
			L85.542,361.848V175.502h0l149.326,91.382V453.23z M277.13,58.768l130.036,79.306L277.13,217.381V58.768z M426.456,361.848
			L277.13,453.23V266.884l149.326-91.382V361.848z"/>
	</g>
</g>
<g>
	<g>
		<path d="M153.725,318.456c-6.153-9.917-19.177-12.972-29.096-6.82l-9.578,5.941c-9.917,6.151-12.97,19.177-6.82,29.095
			c4.001,6.449,10.908,9.996,17.978,9.996c3.801,0,7.649-1.026,11.118-3.177l9.578-5.941
			C156.823,341.4,159.875,328.373,153.725,318.456z"/>
	</g>
</g>
<g>
	<g>
		<path d="M396.018,316.694l-9.588-5.924c-9.93-6.135-22.95-3.057-29.083,6.87c-6.134,9.929-3.058,22.95,6.87,29.083l9.588,5.924
			c3.461,2.138,7.297,3.157,11.085,3.157c7.082,0,14.001-3.56,17.997-10.027C409.023,335.848,405.947,322.827,396.018,316.694z"/>
	</g>
</g>
<g>
	<g>
		<path d="M215.977,279.845c-6.149-9.916-19.176-12.973-29.095-6.821l-9.578,5.939c-9.919,6.151-12.972,19.177-6.823,29.095
			c4.001,6.451,10.908,9.996,17.98,9.996c3.799,0,7.649-1.026,11.116-3.175l9.578-5.939
			C219.075,302.791,222.129,289.764,215.977,279.845z"/>
	</g>
</g>
<g>
	<g>
		<path d="M333.701,278.19l-9.588-5.924c-9.929-6.134-22.948-3.058-29.085,6.869c-6.134,9.929-3.058,22.95,6.869,29.085l9.588,5.924
			c3.461,2.138,7.297,3.157,11.087,3.157c7.082,0,14-3.56,17.997-10.027C346.703,297.346,343.628,284.324,333.701,278.19z"/>
	</g>
</g>
<g>
</g>
<g>
</g>
<g>
</g>
<g>
</g>
<g>
</g>
<g>
</g>
<g>
</g>
<g>
</g>
<g>
</g>
<g>
</g>
<g>
</g>
<g>
</g>
<g>
</g>
<g>
</g>
<g>
</g>
</svg>
