<?xml version="1.0" encoding="utf-8"?>
<!-- Generator: Adobe Illustrator 16.0.0, SVG Export Plug-In . SVG Version: 6.00 Build 0)  -->
<!DOCTYPE svg PUBLIC "-//W3C//DTD SVG 1.1//EN" "http://www.w3.org/Graphics/SVG/1.1/DTD/svg11.dtd">
<svg version="1.1" id="Layer_1" xmlns="http://www.w3.org/2000/svg" xmlns:xlink="http://www.w3.org/1999/xlink" x="0px" y="0px"
	 width="200px" height="200px" viewBox="0 0 200 200" enable-background="new 0 0 200 200" xml:space="preserve">
<g>
	<g>
		<g>
			<path fill="#CFE2F3" d="M150.875,109.25c-9.811,0-18.827,3.435-25.949,9.136l-3.343-3.342V84.957l3.343-3.342
				c7.122,5.701,16.139,9.136,25.949,9.136c22.952,0,41.625-18.672,41.625-41.625S173.827,7.5,150.875,7.5
				S109.25,26.172,109.25,49.125c0,9.811,3.432,18.827,9.133,25.952l-3.339,3.34H84.957l-3.342-3.34
				c5.704-7.125,9.136-16.141,9.136-25.952C90.75,26.172,72.078,7.5,49.125,7.5S7.5,26.172,7.5,49.125S26.172,90.75,49.125,90.75
				c9.811,0,18.827-3.435,25.95-9.133l3.342,3.339v30.087l-3.342,3.339c-7.123-5.698-16.138-9.133-25.95-9.133
				c-22.953,0-41.625,18.673-41.625,41.625S26.172,192.5,49.125,192.5s41.625-18.673,41.625-41.625
				c0-9.811-3.432-18.827-9.133-25.952l3.339-3.34h30.087l3.342,3.34c-5.704,7.125-9.136,16.142-9.136,25.952
				c0,22.952,18.673,41.625,41.625,41.625s41.625-18.673,41.625-41.625S173.827,109.25,150.875,109.25z M49.125,183.25
				c-17.88,0-32.375-14.495-32.375-32.375S31.245,118.5,49.125,118.5c7.271,0,13.958,2.427,19.363,6.472l-21.14,21.14
				c-5.451-0.653-9.016-4.205-9.016-7.569c0-2.554-2.068-4.625-4.625-4.625c-2.556,0-4.625,2.071-4.625,4.625
				c0,8.158,7.662,16.958,20.042,16.958c6.457,0,10.792,3.987,10.792,7.708c0,2.554,2.068,4.625,4.625,4.625
				c2.556,0,4.625-2.071,4.625-4.625c0-5.858-3.968-12.031-10.78-15.053l16.641-16.641c4.045,5.402,6.472,12.09,6.472,19.36
				C81.5,168.755,67.005,183.25,49.125,183.25z M75.028,68.488l-21.14-21.14c0.653-5.451,4.203-9.016,7.569-9.016
				c2.557,0,4.625-2.072,4.625-4.625c0-2.553-2.068-4.625-4.625-4.625c-8.155,0-16.958,7.662-16.958,20.042
				c0,6.457-3.983,10.792-7.708,10.792c-2.557,0-4.625,2.072-4.625,4.625c0,2.553,2.068,4.625,4.625,4.625
				c5.858,0,12.028-3.968,15.053-10.783l16.641,16.641c-5.402,4.048-12.089,6.475-19.36,6.475c-17.88,0-32.375-14.495-32.375-32.375
				S31.245,16.75,49.125,16.75S81.5,31.245,81.5,49.125C81.5,56.396,79.073,63.083,75.028,68.488z M112.333,112.333H87.667V87.667
				h24.667V112.333z M150.875,16.75c17.88,0,32.375,14.495,32.375,32.375S168.755,81.5,150.875,81.5
				c-7.271,0-13.958-2.427-19.363-6.472l21.14-21.14c5.451,0.653,9.016,4.206,9.016,7.569c0,2.553,2.068,4.625,4.625,4.625
				c2.556,0,4.625-2.072,4.625-4.625c0-8.158-7.662-16.958-20.042-16.958c-6.457,0-10.792-3.987-10.792-7.708
				c0-2.553-2.068-4.625-4.625-4.625c-2.556,0-4.625,2.072-4.625,4.625c0,5.858,3.969,12.031,10.779,15.053l-16.64,16.641
				c-4.046-5.402-6.473-12.089-6.473-19.36C118.5,31.245,132.995,16.75,150.875,16.75z M150.875,183.25
				c-17.88,0-32.375-14.495-32.375-32.375c0-7.271,2.427-13.958,6.472-19.363l21.14,21.14c-0.653,5.451-4.203,9.016-7.569,9.016
				c-2.557,0-4.625,2.071-4.625,4.625c0,2.553,2.068,4.625,4.625,4.625c8.155,0,16.958-7.662,16.958-20.042
				c0-6.457,3.983-10.792,7.708-10.792c2.557,0,4.625-2.071,4.625-4.625c0-2.553-2.068-4.625-4.625-4.625
				c-5.858,0-12.027,3.969-15.053,10.783l-16.641-16.642c5.402-4.048,12.09-6.475,19.36-6.475c17.88,0,32.375,14.495,32.375,32.375
				S168.755,183.25,150.875,183.25z"/>
			<path fill="#CFE2F3" d="M150.875,193.5c-23.504,0-42.625-19.121-42.625-42.625c0-9.444,3.04-18.37,8.802-25.871l-2.422-2.421
				H85.371l-2.42,2.42c5.76,7.503,8.799,16.43,8.799,25.872c0,23.504-19.122,42.625-42.625,42.625S6.5,174.379,6.5,150.875
				s19.122-42.625,42.625-42.625c9.44,0,18.365,3.039,25.87,8.8l2.422-2.42V85.371l-2.423-2.42
				c-7.505,5.76-16.43,8.799-25.869,8.799C25.622,91.75,6.5,72.628,6.5,49.125S25.622,6.5,49.125,6.5S91.75,25.622,91.75,49.125
				c0,9.444-3.04,18.369-8.802,25.872l2.422,2.42h29.259l2.419-2.42c-5.76-7.503-8.799-16.429-8.799-25.872
				c0-23.503,19.121-42.625,42.625-42.625S193.5,25.622,193.5,49.125S174.379,91.75,150.875,91.75
				c-9.441,0-18.366-3.041-25.869-8.802l-2.423,2.423v29.259l2.423,2.422c7.503-5.762,16.428-8.802,25.869-8.802
				c23.504,0,42.625,19.121,42.625,42.625S174.379,193.5,150.875,193.5z M84.542,120.583h30.916l4.269,4.266l-0.561,0.699
				c-5.833,7.286-8.916,16.044-8.916,25.327c0,22.4,18.225,40.625,40.625,40.625s40.625-18.225,40.625-40.625
				s-18.225-40.625-40.625-40.625c-9.28,0-18.037,3.083-25.324,8.916l-0.699,0.56l-4.269-4.268V84.542l4.269-4.269l0.699,0.56
				c7.287,5.833,16.045,8.917,25.324,8.917c22.4,0,40.625-18.224,40.625-40.625S173.275,8.5,150.875,8.5
				S110.25,26.724,110.25,49.125c0,9.281,3.082,18.039,8.914,25.328l0.559,0.699l-4.265,4.266H84.542l-4.269-4.266l0.56-0.699
				c5.833-7.287,8.917-16.044,8.917-25.327C89.75,26.724,71.526,8.5,49.125,8.5S8.5,26.724,8.5,49.125S26.724,89.75,49.125,89.75
				c9.278,0,18.035-3.083,25.325-8.914l0.698-0.559l4.269,4.265v30.916l-4.269,4.265l-0.698-0.559
				c-7.289-5.832-16.046-8.914-25.325-8.914c-22.401,0-40.625,18.225-40.625,40.625S26.724,191.5,49.125,191.5
				s40.625-18.225,40.625-40.625c0-9.281-3.082-18.04-8.914-25.327l-0.559-0.699L84.542,120.583z M150.875,184.25
				c-18.403,0-33.375-14.972-33.375-33.375c0-7.228,2.307-14.131,6.671-19.963l0.691-0.924l22.3,22.3l-0.058,0.482
				c-0.677,5.642-4.357,9.896-8.563,9.896c-1.999,0-3.625,1.626-3.625,3.625s1.626,3.625,3.625,3.625
				c7.675,0,15.958-7.28,15.958-19.042c0-7.054,4.503-11.792,8.708-11.792c1.999,0,3.625-1.626,3.625-3.625
				s-1.626-3.625-3.625-3.625c-5.751,0-11.433,4.095-14.139,10.189l-0.591,1.331l-18.486-18.487l0.923-0.691
				c5.827-4.367,12.729-6.675,19.96-6.675c18.403,0,33.375,14.972,33.375,33.375S169.278,184.25,150.875,184.25z M125.096,133.05
				c-3.665,5.278-5.596,11.417-5.596,17.825c0,17.3,14.075,31.375,31.375,31.375s31.375-14.075,31.375-31.375
				S168.175,119.5,150.875,119.5c-6.411,0-12.548,1.932-17.823,5.598l14.818,14.819c3.224-6.085,9.231-10.084,15.338-10.084
				c3.102,0,5.625,2.523,5.625,5.625s-2.523,5.625-5.625,5.625c-3.239,0-6.708,3.935-6.708,9.792
				c0,12.997-9.321,21.042-17.958,21.042c-3.102,0-5.625-2.523-5.625-5.625s2.523-5.625,5.625-5.625
				c2.667,0,5.765-2.854,6.511-7.659L125.096,133.05z M49.125,184.25c-18.403,0-33.375-14.972-33.375-33.375
				S30.722,117.5,49.125,117.5c7.228,0,14.13,2.307,19.962,6.671l0.924,0.691l-22.3,22.3l-0.482-0.058
				c-6.195-0.743-9.896-4.937-9.896-8.563c0-1.999-1.626-3.625-3.625-3.625s-3.625,1.626-3.625,3.625
				c0,7.675,7.28,15.958,19.042,15.958c7.054,0,11.792,4.503,11.792,8.708c0,1.999,1.626,3.625,3.625,3.625s3.625-1.626,3.625-3.625
				c0-5.754-4.093-11.437-10.185-14.139l-1.332-0.591l18.487-18.487l0.691,0.924c4.364,5.828,6.671,12.73,6.671,19.96
				c0,8.915-3.471,17.296-9.775,23.6S58.04,184.25,49.125,184.25z M49.125,119.5c-17.3,0-31.375,14.075-31.375,31.375
				s14.075,31.375,31.375,31.375c8.38,0,16.26-3.264,22.186-9.189s9.189-13.805,9.189-22.186c0-6.41-1.931-12.548-5.595-17.822
				L60.087,147.87c6.083,3.221,10.08,9.229,10.08,15.338c0,3.102-2.523,5.625-5.625,5.625s-5.625-2.523-5.625-5.625
				c0-3.239-3.935-6.708-9.792-6.708c-12.997,0-21.042-9.321-21.042-17.958c0-3.102,2.523-5.625,5.625-5.625
				s5.625,2.523,5.625,5.625c0,2.667,2.854,5.765,7.66,6.511l19.958-19.957C61.672,121.431,55.533,119.5,49.125,119.5z
				 M113.333,113.333H86.667V86.667h26.667V113.333z M88.667,111.333h22.667V88.667H88.667V111.333z M150.875,82.5
				c-7.228,0-14.131-2.307-19.963-6.671l-0.924-0.692l22.3-22.299l0.482,0.058c6.194,0.742,9.896,4.936,9.896,8.562
				c0,1.999,1.626,3.625,3.625,3.625s3.625-1.626,3.625-3.625c0-7.675-7.28-15.958-19.042-15.958
				c-7.054,0-11.792-4.502-11.792-8.708c0-1.999-1.626-3.625-3.625-3.625s-3.625,1.626-3.625,3.625
				c0,5.754,4.093,11.436,10.185,14.139l1.332,0.591l-18.485,18.487l-0.692-0.923c-4.364-5.829-6.672-12.73-6.672-19.96
				c0-18.403,14.972-33.375,33.375-33.375s33.375,14.972,33.375,33.375S169.278,82.5,150.875,82.5z M133.05,74.905
				c5.278,3.664,11.417,5.595,17.825,5.595c17.3,0,31.375-14.075,31.375-31.375S168.175,17.75,150.875,17.75
				S119.5,31.825,119.5,49.125c0,6.41,1.932,12.547,5.596,17.823l14.817-14.818c-6.082-3.222-10.08-9.229-10.08-15.338
				c0-3.102,2.523-5.625,5.625-5.625s5.625,2.523,5.625,5.625c0,3.24,3.935,6.708,9.792,6.708c12.997,0,21.042,9.322,21.042,17.958
				c0,3.102-2.523,5.625-5.625,5.625s-5.625-2.523-5.625-5.625c0-2.667-2.854-5.764-7.659-6.511L133.05,74.905z M49.125,82.5
				c-18.403,0-33.375-14.972-33.375-33.375S30.722,15.75,49.125,15.75S82.5,30.722,82.5,49.125c0,7.228-2.307,14.13-6.671,19.962
				l-0.692,0.924l-22.299-22.3l0.058-0.482c0.676-5.642,4.357-9.896,8.562-9.896c1.999,0,3.625-1.626,3.625-3.625
				s-1.626-3.625-3.625-3.625c-7.675,0-15.958,7.28-15.958,19.042c0,7.054-4.502,11.792-8.708,11.792
				c-1.999,0-3.625,1.626-3.625,3.625s1.626,3.625,3.625,3.625c5.752,0,11.434-4.094,14.139-10.188l0.591-1.332l18.486,18.486
				l-0.923,0.692C63.258,80.192,56.356,82.5,49.125,82.5z M49.125,17.75c-17.3,0-31.375,14.075-31.375,31.375
				S31.825,80.5,49.125,80.5c6.412,0,12.549-1.932,17.823-5.598L52.13,60.083c-3.223,6.085-9.231,10.083-15.338,10.083
				c-3.102,0-5.625-2.523-5.625-5.625s2.523-5.625,5.625-5.625c3.24,0,6.708-3.935,6.708-9.792c0-12.997,9.322-21.042,17.958-21.042
				c3.102,0,5.625,2.523,5.625,5.625s-2.523,5.625-5.625,5.625c-2.667,0-5.764,2.854-6.511,7.66L74.905,66.95
				c3.664-5.278,5.595-11.417,5.595-17.825C80.5,31.825,66.425,17.75,49.125,17.75z"/>
		</g>
	</g>
</g>
</svg>
