<?xml version="1.0" encoding="utf-8"?>
<!-- Generator: Adobe Illustrator 16.0.0, SVG Export Plug-In . SVG Version: 6.00 Build 0)  -->
<!DOCTYPE svg PUBLIC "-//W3C//DTD SVG 1.1//EN" "http://www.w3.org/Graphics/SVG/1.1/DTD/svg11.dtd">
<svg version="1.1" id="Layer_1" xmlns="http://www.w3.org/2000/svg" xmlns:xlink="http://www.w3.org/1999/xlink" x="0px" y="0px"
	 width="48px" height="48px" viewBox="0 0 48 48" enable-background="new 0 0 48 48" xml:space="preserve">
<title>24 Technology Devices icons</title>
<path fill="none" stroke="#CFE2F3" stroke-width="3" stroke-miterlimit="10" d="M11.677,9.781h24.646
	c1.047,0,1.896,0.849,1.896,1.896v24.646c0,1.047-0.849,1.896-1.896,1.896H11.677c-1.047,0-1.896-0.849-1.896-1.896V11.677
	C9.781,10.63,10.63,9.781,11.677,9.781z"/>
<path fill="none" stroke="#CFE2F3" stroke-width="3" stroke-miterlimit="10" d="M22.743,31.296l-6.146-7.217
	c-0.34-0.399-0.292-0.997,0.107-1.336l7.217-6.146c0.399-0.34,0.996-0.292,1.336,0.107l6.146,7.217
	c0.341,0.398,0.293,0.996-0.105,1.336l-7.217,6.146C23.681,31.742,23.082,31.693,22.743,31.296z"/>
<line fill="none" stroke="#CFE2F3" stroke-width="3" stroke-linecap="round" stroke-miterlimit="10" x1="16.417" y1="45.802" x2="16.417" y2="38.398"/>
<line fill="none" stroke="#CFE2F3" stroke-width="3" stroke-linecap="round" stroke-miterlimit="10" x1="24" y1="45.802" x2="24" y2="38.398"/>
<line fill="none" stroke="#CFE2F3" stroke-width="3" stroke-linecap="round" stroke-miterlimit="10" x1="31.583" y1="45.802" x2="31.583" y2="38.398"/>
<line fill="none" stroke="#CFE2F3" stroke-width="3" stroke-linecap="round" stroke-miterlimit="10" x1="16.417" y1="9.781" x2="16.417" y2="2.198"/>
<line fill="none" stroke="#CFE2F3" stroke-width="3" stroke-linecap="round" stroke-miterlimit="10" x1="24" y1="9.687" x2="24" y2="2.198"/>
<line fill="none" stroke="#CFE2F3" stroke-width="3" stroke-linecap="round" stroke-miterlimit="10" x1="31.583" y1="9.781" x2="31.583" y2="2.198"/>
<line fill="none" stroke="#CFE2F3" stroke-width="3" stroke-linecap="round" stroke-miterlimit="10" x1="45.802" y1="31.583" x2="38.219" y2="31.583"/>
<line fill="none" stroke="#CFE2F3" stroke-width="3" stroke-linecap="round" stroke-miterlimit="10" x1="45.802" y1="24" x2="38.219" y2="24"/>
<line fill="none" stroke="#CFE2F3" stroke-width="3" stroke-linecap="round" stroke-miterlimit="10" x1="45.802" y1="16.417" x2="38.219" y2="16.417"/>
<line fill="none" stroke="#CFE2F3" stroke-width="3" stroke-linecap="round" stroke-miterlimit="10" x1="9.781" y1="31.583" x2="2.198" y2="31.583"/>
<line fill="none" stroke="#CFE2F3" stroke-width="3" stroke-linecap="round" stroke-miterlimit="10" x1="9.658" y1="24" x2="2.198" y2="24"/>
<line fill="none" stroke="#CFE2F3" stroke-width="3" stroke-linecap="round" stroke-miterlimit="10" x1="9.781" y1="16.417" x2="2.198" y2="16.417"/>
</svg>
