<?xml version="1.0" encoding="utf-8"?>
<!-- Generator: Adobe Illustrator 16.0.0, SVG Export Plug-In . SVG Version: 6.00 Build 0)  -->
<!DOCTYPE svg PUBLIC "-//W3C//DTD SVG 1.1//EN" "http://www.w3.org/Graphics/SVG/1.1/DTD/svg11.dtd">
<svg version="1.1" id="Layer_1" xmlns="http://www.w3.org/2000/svg" xmlns:xlink="http://www.w3.org/1999/xlink" x="0px" y="0px"
	 width="200px" height="200px" viewBox="0 0 200 200" enable-background="new 0 0 200 200" xml:space="preserve">
<g>
	<g>
		<g>
			<path fill="#CFE2F3" d="M58.333,108.334c4.6,0,8.333-3.732,8.333-8.333c0-4.6-3.733-8.333-8.333-8.333S50,95.401,50,100.001
				C50,104.601,53.733,108.334,58.333,108.334z"/>
			<path fill="#CFE2F3" d="M58.333,125c-4.6,0-8.333,3.733-8.333,8.334c0,4.6,3.733,8.332,8.333,8.332s8.333-3.732,8.333-8.332
				C66.667,128.734,62.934,125,58.333,125z"/>
			<path fill="#CFE2F3" d="M75,108.334c-4.6,0-8.333,3.733-8.333,8.333C66.667,121.268,70.4,125,75,125s8.333-3.732,8.333-8.333
				C83.333,112.067,79.6,108.334,75,108.334z"/>
			<path fill="#CFE2F3" d="M41.667,108.334c-4.6,0-8.333,3.733-8.333,8.333c0,4.601,3.733,8.333,8.333,8.333
				c4.6,0,8.333-3.732,8.333-8.333C50,112.067,46.267,108.334,41.667,108.334z"/>
			<path fill="#CFE2F3" d="M199.399,157.252l-9.808-55.185c-4.445-24.99-24.697-43.258-48.538-43.258h-3.75
				c-5.503,0-10.858,1.773-15.357,5.069c-2.638,1.919-4.507,2.789-5.518,2.789h-8.095V33.333c0-3.311,1.938-5.5,4.024-5.5
				c2.205,0,4.308,2.301,4.308,5.5c0,11.508,9.329,20.833,20.834,20.833c11.504,0,20.832-9.325,20.832-20.833v-25
				C158.332,3.731,154.602,0,150,0c-4.604,0-8.334,3.731-8.334,8.333v25c0,2.302-1.865,4.167-4.166,4.167
				c-2.303,0-4.168-1.864-4.168-4.167c0-12.085-9.213-22.167-20.975-22.167c-11.771,0-20.691,10.072-20.691,22.167v33.334h-8.096
				c-1.011,0-2.88-0.87-5.538-2.804c-4.495-3.283-9.838-5.054-15.337-5.054h-3.75c-23.844,0-44.104,18.272-48.538,43.26
				L0.601,157.25C-3.306,179.246,12.327,200,33.63,200c7.501,0,14.393-4.039,18.392-10.607l7.432-12.198
				c3.876-6.362,9.523-10.527,13.925-10.527h53.242c4.402,0,10.048,4.165,13.925,10.527l7.433,12.2
				C151.961,195.956,158.865,200,166.37,200C187.673,200,203.305,179.246,199.399,157.252z M166.369,183.334
				c-1.568,0-3.127-0.914-4.15-2.6l-7.44-12.212C148.168,157.674,137.766,150,126.62,150H73.379
				c-11.146,0-21.547,7.674-28.158,18.522l-7.434,12.2c-1.034,1.698-2.591,2.611-4.158,2.611c-10.498,0-18.781-10.998-16.62-23.168
				l9.808-55.182c3.065-17.272,16.632-29.508,32.128-29.508h3.75c1.938,0,3.844,0.632,5.518,1.854
				c5.287,3.848,9.921,6.004,15.357,6.004h32.857c5.437,0,10.07-2.157,15.345-5.996c1.681-1.23,3.59-1.863,5.53-1.863h3.75
				c15.494,0,29.056,12.233,32.128,29.508l9.809,55.183C185.15,172.336,176.867,183.334,166.369,183.334z"/>
			<path fill="#CFE2F3" d="M158.332,108.334H150v-8.333c0-4.603-3.731-8.333-8.334-8.333c-4.602,0-8.333,3.73-8.333,8.333v8.333H125
				c-4.603,0-8.333,3.73-8.333,8.333S120.397,125,125,125h8.333v8.334c0,4.602,3.731,8.332,8.333,8.332
				c4.603,0,8.334-3.73,8.334-8.332V125h8.332c4.603,0,8.334-3.73,8.334-8.333S162.935,108.334,158.332,108.334z"/>
		</g>
	</g>
</g>
</svg>
