<?xml version="1.0" encoding="iso-8859-1"?>
<!-- Generator: Adobe Illustrator 19.0.0, SVG Export Plug-In . SVG Version: 6.00 Build 0)  -->
<svg version="1.1" id="Layer_1" xmlns="http://www.w3.org/2000/svg" xmlns:xlink="http://www.w3.org/1999/xlink" x="0px" y="0px"
	 viewBox="0 0 512.005 512.005" style="enable-background:new 0 0 512.005 512.005;" xml:space="preserve">
<g>
	<g>
		<g>
			<path d="M149.335,277.338c11.776,0,21.333-9.557,21.333-21.333c0-11.776-9.557-21.333-21.333-21.333s-21.333,9.557-21.333,21.333
				C128.002,267.78,137.559,277.338,149.335,277.338z"/>
			<path d="M149.335,320.004c-11.776,0-21.333,9.557-21.333,21.333c0,11.776,9.557,21.333,21.333,21.333s21.333-9.557,21.333-21.333
				C170.669,329.562,161.111,320.004,149.335,320.004z"/>
			<path d="M192.002,277.338c-11.776,0-21.333,9.557-21.333,21.333s9.557,21.333,21.333,21.333s21.333-9.557,21.333-21.333
				S203.778,277.338,192.002,277.338z"/>
			<path d="M106.669,277.338c-11.776,0-21.333,9.557-21.333,21.333s9.557,21.333,21.333,21.333s21.333-9.557,21.333-21.333
				S118.445,277.338,106.669,277.338z"/>
			<path d="M510.468,402.568l-25.11-141.273c-11.377-63.974-63.224-110.741-124.257-110.741h-9.6
				c-14.088,0-27.797,4.54-39.315,12.976c-6.753,4.914-11.538,7.141-14.125,7.141h-20.725V85.333c0-8.475,4.963-14.08,10.304-14.08
				c5.645,0,11.029,5.892,11.029,14.08c0,29.462,23.882,53.333,53.333,53.333c29.451,0,53.333-23.871,53.333-53.333v-64
				C405.335,9.551,395.784,0,384.002,0c-11.782,0-21.333,9.551-21.333,21.333v64c0,5.894-4.775,10.667-10.667,10.667
				s-10.667-4.773-10.667-10.667c0-30.937-23.586-56.747-53.696-56.747c-30.137,0-52.971,25.784-52.971,56.747v85.338h-20.725
				c-2.587,0-7.372-2.227-14.177-7.18c-11.507-8.405-25.185-12.938-39.263-12.938h-9.6c-61.042,0-112.907,46.777-124.259,110.747
				L1.537,402.564c-9.999,56.311,30.02,109.44,84.556,109.44c19.203,0,36.846-10.339,47.085-27.156l19.026-31.226
				c9.924-16.288,24.379-26.951,35.649-26.951h136.299c11.27,0,25.724,10.663,35.649,26.951l19.029,31.232
				c10.194,16.799,27.868,27.151,47.082,27.151C480.447,512.004,520.466,458.875,510.468,402.568z M425.911,469.338
				c-4.017,0-8.008-2.338-10.626-6.652l-19.049-31.264c-16.923-27.774-43.551-47.417-72.085-47.417H187.853
				c-28.534,0-55.162,19.643-72.085,47.417l-19.029,31.232c-2.647,4.348-6.634,6.684-10.646,6.684
				c-26.874,0-48.08-28.153-42.547-59.31l25.109-141.266c7.846-44.217,42.577-75.541,82.249-75.541h9.6
				c4.961,0,9.841,1.617,14.126,4.747c13.534,9.85,25.398,15.37,39.314,15.37h84.117c13.917,0,25.78-5.521,39.284-15.348
				c4.301-3.15,9.19-4.769,14.156-4.769h9.6c39.665,0,74.385,31.318,82.25,75.543l25.109,141.267
				C473.991,441.185,452.785,469.338,425.911,469.338z"/>
			<path d="M405.335,277.338h-21.333v-21.333c0-11.782-9.551-21.333-21.333-21.333s-21.333,9.551-21.333,21.333v21.333h-21.333
				c-11.782,0-21.333,9.551-21.333,21.333c0,11.782,9.551,21.333,21.333,21.333h21.333v21.333c0,11.782,9.551,21.333,21.333,21.333
				s21.333-9.551,21.333-21.333v-21.333h21.333c11.782,0,21.333-9.551,21.333-21.333
				C426.669,286.889,417.117,277.338,405.335,277.338z"/>
		</g>
	</g>
</g>
<g>
</g>
<g>
</g>
<g>
</g>
<g>
</g>
<g>
</g>
<g>
</g>
<g>
</g>
<g>
</g>
<g>
</g>
<g>
</g>
<g>
</g>
<g>
</g>
<g>
</g>
<g>
</g>
<g>
</g>
</svg>
