<?xml version="1.0" encoding="utf-8"?>
<!-- Generator: Adobe Illustrator 16.0.0, SVG Export Plug-In . SVG Version: 6.00 Build 0)  -->
<!DOCTYPE svg PUBLIC "-//W3C//DTD SVG 1.1//EN" "http://www.w3.org/Graphics/SVG/1.1/DTD/svg11.dtd">
<svg version="1.1" id="Layer_1" xmlns="http://www.w3.org/2000/svg" xmlns:xlink="http://www.w3.org/1999/xlink" x="0px" y="0px"
	 width="1000px" height="1000px" viewBox="0 0 1000 1000" enable-background="new 0 0 1000 1000" xml:space="preserve">
<g opacity="0.05">
	<path fill="#000C7A" d="M1001,241c-21.15-0.019-42.303-0.068-63.453,0.019c-1.311,0.006-2.91,0.78-3.879,1.713
		c-5.529,5.334-10.828,10.911-16.404,16.196c-1.225,1.161-3.25,2.073-4.914,2.084c-20.895,0.141-41.791,0.137-62.686,0.014
		c-1.555-0.009-3.477-0.829-4.596-1.919c-8.785-8.548-17.502-17.171-26.023-25.981c-1.758-1.82-3.465-2.143-5.701-2.143
		c-83.309,0.029-166.617-0.015-249.926,0.125c-4.713,0.008-7.988-1.243-11.309-4.655c-14.188-14.571-28.742-28.784-43.035-43.254
		c-1.847-1.869-3.699-2.272-6.101-2.271c-80.493,0.037-160.984,0.037-241.478,0.023c-26.774-0.004-53.548-0.089-80.321-0.002
		c-1.354,0.004-3.074,0.979-3.998,2.045c-8.887,10.254-21.926,10.985-31.098,1.165c-9.825-10.52-4.534-26.684,6.51-31.053
		c9.701-3.838,16.918-2.422,23.748,5.227c1.787,2.001,3.566,2.686,6.216,2.684c82.547-0.075,165.094-0.062,247.642-0.062
		c27.17,0,54.341,0.022,81.512-0.039c2.309-0.005,3.967,0.55,5.678,2.278c14.938,15.067,30.033,29.976,44.99,45.024
		c1.936,1.948,3.818,2.865,6.645,2.862c67.56-0.083,135.113-0.065,202.673-0.065c16.741,0,33.483,0.031,50.227-0.036
		c2.303-0.009,3.957,0.516,5.676,2.295c8.535,8.83,17.256,17.483,26.012,26.096c0.886,0.869,2.441,1.478,3.689,1.486
		c15.768,0.098,31.535,0.095,47.301,0.004c1.269-0.007,2.859-0.511,3.74-1.364c5.684-5.507,11.16-11.228,16.838-16.74
		c0.978-0.948,2.592-1.747,3.916-1.752c23.971-0.081,47.941-0.029,71.91-0.005C1001,227.666,1001,234.333,1001,241z
		 M161.004,177.807c3.253,0.016,6.641-3.343,6.726-6.67c0.092-3.569-3.116-6.89-6.68-6.919c-3.421-0.027-7.035,3.604-6.906,6.941
		C154.266,174.32,157.849,177.792,161.004,177.807z"/>
	<path fill="#000C7A" d="M401,1001c0.012-30.635,0.025-61.266,0.035-91.9c0.005-16.78-0.059-33.563,0.066-50.346
		c0.021-2.686-0.876-4.504-2.748-6.293c-5.179-4.953-10.299-9.977-15.218-15.184c-1.151-1.222-2-3.281-2.004-4.959
		c-0.104-54.216-0.09-108.435-0.093-162.648c0-7.174,0.129-14.352-0.1-21.518c-0.054-1.654-0.896-3.795-2.121-4.814
		c-6.146-5.107-8.191-11.186-8.046-19.357c0.54-30.364,0.304-60.745,0.111-91.118c-0.025-4.158,0.67-7.576,4.062-9.966
		c5.396-3.799,6.725-8.889,6.217-15.235c-0.52-6.495,0.004-13.068-0.201-19.6c-0.05-1.579-0.77-3.523-1.863-4.625
		c-19.613-19.757-39.338-39.402-59.024-59.086c-10.481-10.479-20.896-21.023-31.464-31.413c-1.107-1.088-3.008-1.583-4.627-1.878
		c-1.736-0.318-3.586,0.049-5.368-0.099c-5.839-0.484-10.604,0.319-15.083,5.325c-5.934,6.631-17.687,6.306-24.612,0.709
		c-8.129-6.571-10.319-17.145-5.343-25.809c4.752-8.275,15.255-12.53,23.739-8.942c3.61,1.527,6.543,4.624,9.856,6.9
		c1.136,0.781,2.484,1.727,3.756,1.758c7.174,0.172,14.356-0.026,21.528,0.183c1.54,0.045,3.414,0.874,4.514,1.966
		c26.334,26.127,52.589,52.337,78.851,78.54c7.701,7.686,15.451,15.325,22.997,23.162c1.232,1.281,2.108,3.475,2.132,5.26
		c0.173,13.841,0.021,27.686,0.161,41.527c0.025,2.658-0.482,4.797-2.658,6.311c-6.41,4.457-7.798,10.498-7.657,18.154
		c0.462,25.113,0.296,50.242-0.086,75.357c-0.081,5.336,2.662,8.344,6.041,11.094c3.44,2.797,4.384,5.928,4.363,10.268
		c-0.17,35.373-0.077,70.748-0.069,106.123c0.005,24.736,0.046,49.476-0.063,74.211c-0.013,2.66,0.705,4.59,2.579,6.398
		c4.79,4.617,9.389,9.434,14.212,14.014c2.259,2.146,3.363,4.349,3.354,7.637c-0.131,49.966-0.111,99.931-0.126,149.896
		C414.333,1001,407.667,1001,401,1001z M257.67,381c0.003-3.573-3.077-6.715-6.546-6.679c-3.623,0.039-6.519,2.894-6.644,6.548
		c-0.122,3.579,3.219,7.067,6.688,6.984C254.396,387.774,257.667,384.327,257.67,381z"/>
	<path fill="#000C7A" d="M351,1001c-0.004-37.418-0.026-74.836,0.027-112.254c0.003-2.451-0.582-4.225-2.424-6.037
		c-15.321-15.078-30.547-30.256-45.666-45.539c-1.158-1.172-1.777-3.371-1.793-5.1c-0.136-14.609-0.007-29.222-0.163-43.828
		c-0.018-1.678-0.871-3.748-2.042-4.949c-9.909-10.162-19.914-20.232-30.086-30.131c-1.333-1.295-3.771-2.055-5.698-2.057
		C175.771,751,88.385,751.006,1,751c0-6.668,0-13.334,0-20c52.531,0.008,105.063,0.004,157.594,0.025
		c38.037,0.018,76.074,0.055,114.111,0.166c1.329,0.004,3.017,0.537,3.929,1.438c14.177,14.01,28.293,28.078,42.28,42.275
		c1.234,1.252,2.062,3.479,2.082,5.266c0.165,14.478,0.005,28.957,0.196,43.432c0.024,1.898,0.997,4.244,2.329,5.597
		c14.727,14.947,29.575,29.776,44.494,44.535c2.162,2.139,3.055,4.291,3.047,7.366c-0.103,39.968-0.064,79.935-0.063,119.9
		C364.333,1001,357.667,1001,351,1001z"/>
	<path fill="#000C7A" d="M421,1c0.016,17.303,0.077,34.605-0.002,51.908c-0.012,2.591,0.548,4.508,2.511,6.39
		c6.556,6.284,12.95,12.739,19.268,19.263c1.745,1.803,3.524,2.469,6.015,2.464c37.554-0.072,75.108-0.02,112.661-0.108
		c2.787-0.006,4.703,0.815,6.649,2.798c11.464,11.689,23.002,23.305,34.701,34.757c1.441,1.409,3.974,2.377,6.01,2.397
		c18.324,0.179,36.65,0.162,54.976,0.002c1.781-0.015,3.996-0.921,5.258-2.173c20.338-20.167,40.574-40.438,60.73-60.787
		c0.932-0.941,1.372-2.865,1.258-4.267c-0.789-9.559,5.27-19.351,13.645-21.709c10.383-2.922,20.117,1.4,24.701,10.968
		c6.48,13.521-4.727,29.202-20.229,27.995c-2.816-0.219-4.457,0.601-6.257,2.409c-21.161,21.277-42.397,42.481-63.541,63.778
		c-2.646,2.665-5.319,4.026-9.303,3.989c-23.067-0.218-46.141-0.164-69.211-0.035c-2.949,0.017-5.047-0.867-7.053-2.897
		c-11.312-11.454-22.729-22.803-34.025-34.27c-1.998-2.029-4.021-2.978-6.983-2.969c-37.427,0.109-74.854,0.042-112.278,0.133
		c-2.653,0.006-4.534-0.724-6.374-2.595c-10.115-10.289-20.306-20.504-30.543-30.67c-1.852-1.837-2.625-3.731-2.611-6.405
		C401.08,41.245,401.012,21.122,401,1C407.667,1,414.333,1,421,1z M750.947,44.353c-3.611,0.094-6.371,3.027-6.31,6.703
		c0.068,4.175,2.644,6.605,6.822,6.441c3.519-0.138,6.508-3.335,6.318-6.755C757.584,47.221,754.42,44.262,750.947,44.353z"/>
	<path fill="#000C7A" d="M371,1c-0.004,20.376,0.028,40.753-0.085,61.129c-0.009,1.591-0.605,3.605-1.672,4.698
		c-10.27,10.516-20.733,20.841-31.047,31.313c-1.814,1.842-3.587,2.776-6.294,2.774c-67.547-0.04-135.095,0.03-202.643-0.018
		c-1.449,0-3.238-0.804-4.292-1.828c-7.531-7.314-14.956-14.739-22.284-22.256c-0.927-0.95-1.512-2.63-1.543-3.988
		c-0.155-6.788-0.183-13.583-0.02-20.371c0.064-2.672-0.781-4.424-2.843-6.187c-10.72-9.171-9.313-25.562,2.653-32.582
		c8.671-5.086,20.779-2.514,26.383,5.604c5.979,8.663,4.637,20.567-3.48,26.923c-2.394,1.874-3.13,3.724-2.861,6.409
		c0.012,0.127,0.028,0.263-0.003,0.383c-3.328,12.893,5.502,19.82,13.42,27.134c0.711,0.658,2.107,0.802,3.185,0.802
		c62.293,0.036,124.586,0.04,186.88-0.025c1.249-0.001,2.829-0.496,3.691-1.338c7.045-6.875,14.017-13.831,20.846-20.92
		c1.083-1.125,1.881-3.042,1.893-4.601C351.027,36.373,350.989,18.686,351,1C357.667,1,364.333,1,371,1z M110.884,24.412
		c-3.549,0.101-6.652,3.245-6.609,6.695c0.041,3.2,3.301,6.634,6.303,6.641c3.84,0.008,7.396-3.403,7.264-6.967
		C117.719,27.472,114.271,24.316,110.884,24.412z"/>
	<path fill="#000C7A" d="M821,1001c0.031-7.178-0.053-14.355,0.182-21.525c0.052-1.565,0.854-3.477,1.957-4.584
		c14.979-15.059,30.072-30.004,45.142-44.973c1.873-1.859,2.834-3.863,2.807-6.732c-0.166-18.061-0.121-36.123-0.012-54.184
		c0.008-1.326,0.711-3.063,1.692-3.906c10.754-9.225,21.619-18.319,32.474-27.43c8.125-6.822,16.313-13.564,24.354-20.484
		c0.884-0.758,1.349-2.451,1.351-3.713c0.069-27.557,0.092-55.113-0.076-82.668c-0.01-1.52-1.438-3.381-2.719-4.481
		c-7.574-6.513-9.328-17.074-4.06-25.697c5.113-8.371,15.445-11.82,24.373-8.144c7.267,2.992,11.523,8.529,12.424,16.168
		c0.877,7.445-1.805,13.718-7.791,18.578c-1.19,0.967-2.018,3.104-2.022,4.703c-0.111,29.863-0.104,59.728-0.01,89.59
		c0.008,2.812-0.843,4.476-3.113,6.338c-13.228,10.857-26.213,22.004-39.269,33.066c-5.071,4.297-10.002,8.773-15.227,12.873
		c-1.994,1.565-2.508,3.188-2.5,5.521c0.065,17.56,0.096,35.119-0.06,52.677c-0.016,1.801-0.834,4.039-2.067,5.313
		c-9.074,9.357-18.349,18.523-27.562,27.748c-5.959,5.967-12.026,11.834-17.799,17.979c-1.313,1.396-2.086,3.711-2.266,5.678
		c-0.367,4.067-0.168,8.188-0.203,12.291C834.334,1001,827.668,1001,821,1001z M941.176,717.828
		c3.201-0.014,6.617-3.471,6.666-6.742c0.051-3.563-2.91-6.406-6.684-6.422c-3.771-0.014-6.818,2.758-6.869,6.248
		C934.238,714.32,937.748,717.842,941.176,717.828z"/>
	<path fill="#000C7A" d="M1,421c17.563,0.005,35.125,0.073,52.686-0.081c1.786-0.016,3.983-0.921,5.271-2.16
		c8.747-8.411,17.237-17.089,25.988-25.497c1.283-1.233,3.499-2.076,5.297-2.102c13.97-0.201,27.944-0.24,41.914-0.086
		c1.768,0.02,3.921,1.037,5.217,2.292c8.736,8.465,17.242,17.169,25.961,25.651c1.117,1.088,3.032,1.903,4.583,1.913
		c20.895,0.125,41.791,0.134,62.686-0.013c1.603-0.012,3.668-0.996,4.714-2.217c5.508-6.43,12.156-9.13,20.486-7.025
		c8.456,2.137,13.516,7.796,14.978,16.146c1.553,8.868-2.319,15.794-9.69,20.605c-7.765,5.07-19.457,2.79-25.544-4.963
		c-1.555-1.979-3.1-2.5-5.442-2.492c-23.203,0.077-46.406-0.005-69.608,0.123c-2.857,0.017-4.785-0.97-6.682-2.895
		c-8.535-8.657-17.124-17.263-25.795-25.783c-0.857-0.843-2.405-1.362-3.64-1.379c-8.844-0.114-17.691-0.124-26.534,0.008
		c-1.369,0.021-3.086,0.559-4.029,1.483c-8.679,8.504-17.256,17.112-25.778,25.772c-1.791,1.82-3.567,2.797-6.275,2.78
		C41.509,440.954,21.254,441.005,1,441C1,434.333,1,427.667,1,421z M250.973,424.617c-3.887,0.042-6.493,2.581-6.558,6.391
		c-0.062,3.647,3.211,6.846,6.854,6.698c3.422-0.139,6.544-3.47,6.393-6.822C257.489,427.051,254.847,424.576,250.973,424.617z"/>
	<path fill="#000C7A" d="M1001,491c-51.006-0.024-102.012-0.063-153.018,0c-1.466,0.002-3.285,0.711-4.332,1.721
		c-6.802,6.566-13.527,13.22-20.047,20.063c-1.33,1.397-2.312,3.703-2.382,5.629c-0.271,7.551-0.227,15.121-0.022,22.678
		c0.041,1.513,0.904,3.426,2.037,4.416c9.088,7.939,10.51,18.502,3.551,27.945c-6.18,8.379-18.076,10.004-27.5,3.754
		c-10.361-6.871-10.957-23.574-0.928-31.484c2.188-1.729,2.842-3.418,2.805-6.049c-0.141-9.977-0.15-19.957,0.039-29.932
		c0.031-1.694,0.857-3.781,2.035-4.986c10.549-10.791,21.231-21.452,31.975-32.054c0.959-0.947,2.602-1.699,3.928-1.7
		c53.953-0.061,107.906-0.025,161.859,0C1001,477.667,1001,484.333,1001,491z M817.852,560.939c-0.034-3.461-3.221-6.58-6.737-6.597
		c-3.334-0.016-6.646,3.326-6.648,6.711c0,3.49,3.148,6.771,6.531,6.791C814.594,567.869,817.887,564.553,817.852,560.939z"/>
	<path fill="#000C7A" d="M1,471c27.678-0.024,55.355-0.063,83.033-0.068c48.809-0.01,97.617-0.015,146.425,0.046
		c2.249,0.004,3.705-0.586,5.131-2.428c5.792-7.473,15.673-9.658,24.113-5.571c8.317,4.028,12.979,13.503,10.997,22.351
		c-2.033,9.074-10.328,15.604-19.698,15.697c-6.509,0.063-11.444-2.723-15.583-7.576c-1.053-1.234-3.025-2.392-4.577-2.394
		C154.228,490.956,77.614,490.984,1,491C1,484.333,1,477.667,1,471z M257.677,481.102c0.021-3.727-2.701-6.43-6.516-6.472
		c-3.982-0.043-6.767,2.719-6.686,6.632c0.073,3.536,3.181,6.565,6.638,6.472C254.506,487.64,257.658,484.457,257.677,481.102z"/>
	<path fill="#000C7A" d="M251,1001c0.001-34.217,0.035-68.432-0.09-102.648c-0.006-1.764-0.931-3.944-2.165-5.217
		c-8.535-8.793-17.316-17.348-25.87-26.123c-1.086-1.114-1.825-3.051-1.86-4.625c-0.185-8.069,0.047-16.147-0.188-24.215
		c-0.053-1.801-1.017-3.893-2.223-5.272c-2.941-3.361-6.301-6.354-9.434-9.554c-3.272-3.342-9.739-3.235-12.722,0.334
		c-5.264,6.302-12.063,8.664-19.888,6.826c-8.661-2.031-14.09-7.912-15.379-16.666c-1.218-8.266,2.143-15.006,9.142-19.717
		c7.99-5.381,19.608-3.742,25.92,4.207c2.06,2.594,4.366,3.385,6.823,2.887c8.955-1.813,15.329,1.615,20.918,8.398
		c4.205,5.104,9.188,9.59,14.042,14.119c2.286,2.135,3.035,4.428,2.97,7.455c-0.164,7.557-0.175,15.123,0.042,22.678
		c0.048,1.656,0.909,3.662,2.067,4.852c8.646,8.892,17.526,17.553,26.145,26.467c1.13,1.168,1.674,3.369,1.678,5.093
		c0.093,36.907,0.07,73.813,0.069,110.723C264.333,1001,257.667,1001,251,1001z M181.125,804.408
		c-3.602-0.017-6.475,2.854-6.553,6.541c-0.082,3.891,2.82,6.942,6.557,6.897c3.366-0.041,6.563-3.299,6.593-6.721
		C187.75,807.85,184.383,804.422,181.125,804.408z"/>
	<path fill="#000C7A" d="M291,1001c0.002-37.424-0.012-74.848,0.042-112.271c0.004-2.452-0.598-4.196-2.474-6.006
		c-8.744-8.438-17.323-17.051-25.793-25.764c-1.072-1.104-1.606-3.168-1.621-4.793c-0.124-14.207-0.074-28.418-0.075-42.627
		c0-6.217-2.506-8.658-8.687-8.463c-15.26,0.483-26.273-14.736-19.635-27.892c4.873-9.655,12.219-13.803,23.807-11.354
		c8.05,1.701,14.863,10.381,14.253,19.404c-0.302,4.475,1.171,7.354,4.347,9.684c5.029,3.688,6.309,8.424,6.084,14.553
		c-0.479,13.058-0.209,26.144-0.06,39.213c0.018,1.55,0.816,3.466,1.905,4.563c8.552,8.619,17.333,17.01,25.846,25.666
		c1.229,1.252,1.975,3.543,1.979,5.354c0.109,40.242,0.083,80.486,0.082,120.73C304.333,1001,297.667,1001,291,1001z
		 M257.682,781.133c0.039-3.559-2.905-6.551-6.498-6.6c-3.706-0.053-6.562,2.647-6.684,6.324c-0.129,3.875,2.752,6.856,6.592,6.821
		C254.694,787.646,257.643,784.717,257.682,781.133z"/>
	<path fill="#000C7A" d="M841,1c0.035,17.432,0.002,34.863,0.201,52.293c0.021,1.922,0.9,4.288,2.207,5.667
		c6.686,7.059,13.598,13.907,20.559,20.697c0.859,0.838,2.48,1.249,3.754,1.258c15.635,0.118,31.271,0.164,46.904,0.089
		c1.344-0.006,3.02-0.664,3.973-1.598c6.748-6.618,13.313-13.424,20.021-20.084c1.74-1.728,2.488-3.52,2.471-6.036
		C940.967,35.857,941.01,18.428,941,1c6.668,0,13.334,0,20,0c-0.021,20.5-0.018,41-0.119,61.499
		c-0.008,1.376-0.416,3.145-1.316,4.062c-10.834,11.021-21.762,21.953-32.788,32.78c-1.017,0.996-2.894,1.562-4.373,1.569
		c-20.882,0.098-41.765,0.111-62.646-0.026c-1.666-0.011-3.729-0.862-4.922-2.025c-10.807-10.539-21.52-21.178-32.08-31.961
		c-1.133-1.155-1.578-3.416-1.59-5.169C821.027,41.485,821.033,21.242,821,1C827.668,1,834.334,1,841,1z"/>
	<path fill="#000C7A" d="M1,221c27.288-0.027,54.575-0.072,81.862-0.021c1.24,0.002,2.805,0.544,3.667,1.395
		c10.654,10.497,21.179,21.125,31.807,31.648c1.937,1.917,2.721,3.919,2.708,6.72c-0.118,26.263-0.047,52.527-0.098,78.79
		c-0.005,2.406,0.423,4.088,2.48,5.875c9.766,8.476,10.207,20.961,1.389,29.975c-5.367,5.486-14.716,7.308-21.207,4.13
		c-8.862-4.338-13.173-11.499-12.368-20.096c0.543-5.798,3.06-10.374,7.361-14.243c1.216-1.093,2.259-3.104,2.269-4.702
		c0.141-24.21,0.121-48.422,0.033-72.633c-0.005-1.366-0.544-3.087-1.463-4.035c-7.108-7.328-14.336-14.542-21.636-21.68
		c-0.774-0.757-2.248-1.125-3.397-1.126C49.939,240.95,25.47,240.982,1,241C1,234.333,1,227.666,1,221z M117.957,361.407
		c0.077-3.374-3.332-6.95-6.765-7.098c-3.255-0.141-6.732,3.07-6.923,6.392c-0.201,3.5,2.983,7.088,6.464,7.286
		C114.106,368.18,117.881,364.742,117.957,361.407z"/>
	<path fill="#000C7A" d="M211,1001c0.002-24.09,0.056-48.18-0.089-72.268c-0.011-1.902-0.947-4.203-2.227-5.619
		c-3.767-4.174-7.295-9.42-12.109-11.539c-4.526-1.992-10.569-0.584-15.946-0.59c-19.092-0.021-38.184,0.053-57.275-0.068
		c-3.16-0.021-5.406,0.68-7.546,3.258c-5.715,6.885-14.14,8.619-22.931,5.229c-6.862-2.648-12.401-11.101-11.803-19.039
		c0.631-8.365,4.502-14.826,12.784-17.863c7.945-2.914,15.276-1.67,21.114,4.484c2.889,3.045,5.712,4.129,9.867,4.096
		c25.625-0.207,51.252-0.078,76.879-0.146c2.319-0.006,3.997,0.554,5.684,2.279c7.227,7.394,14.699,14.545,21.902,21.959
		c1.062,1.094,1.63,3.119,1.635,4.717c0.095,27.037,0.064,54.072,0.061,81.109C224.333,1001,217.667,1001,211,1001z
		 M107.816,901.484c-0.009-3.986-3.43-7.336-7.388-7.236c-2.799,0.07-6.189,3.758-6.238,6.787c-0.049,3.018,3.609,6.77,6.669,6.838
		C104.14,907.947,107.824,904.564,107.816,901.484z"/>
	<path fill="#000C7A" d="M1001,861c-6.527,0.023-13.061-0.084-19.582,0.164c-1.504,0.059-3.426,0.945-4.367,2.096
		c-4.986,6.097-11.332,8.33-19.014,7.664c-1.18-0.102-2.771,0.443-3.617,1.262c-7.523,7.275-14.967,14.64-22.297,22.109
		c-0.818,0.834-1.102,2.5-1.105,3.781c-0.063,20.986-0.119,41.975,0.037,62.961c0.025,3.264-1.031,5.457-3.305,7.652
		c-7.891,7.62-15.449,15.59-23.463,23.073c-2.93,2.736-3.445,5.716-3.287,9.236c-6.666,0-13.332,0-20,0
		c0.021-2.563,0.395-5.182-0.006-7.676c-0.838-5.23,1.813-8.502,5.289-11.842c7.918-7.607,15.617-15.451,23.246-23.353
		c0.971-1.008,1.395-2.926,1.401-4.426c0.086-21.139-0.002-42.275,0.156-63.412c0.017-1.898,0.979-4.238,2.297-5.607
		c8.695-9.018,17.646-17.786,26.396-26.754c0.883-0.903,1.5-2.619,1.373-3.867c-0.906-8.817,3.627-17.627,11.055-21.02
		c8.902-4.066,18.275-2.041,24.504,5.645c1.477,1.822,2.838,2.466,5.072,2.412c6.402-0.151,12.811-0.084,19.217-0.102
		C1001,847.666,1001,854.332,1001,861z M961.131,857.836c3.225-0.016,6.588-3.34,6.715-6.639c0.123-3.228-3.61-6.918-6.926-6.847
		c-3.545,0.08-6.273,3.099-6.203,6.861C954.785,855.006,957.541,857.852,961.131,857.836z"/>
	<path fill="#000C7A" d="M1001,441c-23.695,0.005-47.393,0.059-71.088-0.081c-1.775-0.01-3.971-0.966-5.244-2.22
		c-15.576-15.339-31.016-30.819-46.498-46.254c-2.354-2.347-8.824-2.183-10.91,0.475c-7.979,10.158-20.125,9.654-27.377,4.734
		c-9.021-6.12-11.563-18.578-5.727-27.48c5.961-9.09,18.627-11.891,27.801-6.132c0.535,0.336,1.102,0.729,1.451,1.234
		c3.469,5.035,8.287,6.96,14.147,5.663c7.729-1.71,11.56,3.837,15.97,8.227c13.229,13.167,26.319,26.47,39.602,39.584
		c1.262,1.245,3.465,2.157,5.238,2.169c20.879,0.144,41.756,0.084,62.635,0.08C1001,427.667,1001,434.333,1001,441z M850.975,374.29
		c-3.303,0.038-6.649,3.475-6.612,6.789c0.034,3.205,3.616,6.83,6.705,6.787c3.514-0.048,6.879-3.566,6.766-7.071
		C857.723,377.408,854.395,374.251,850.975,374.29z"/>
	<path fill="#000C7A" d="M1001,631c-25.367-0.018-50.736,0.176-76.1-0.188c-6.894-0.101-12.037,1.563-16.558,6.969
		c-4.731,5.658-10.379,10.555-15.621,15.787c-2.686,2.682-2.446,8.971,0.425,11.364c11.705,9.761,10.221,26.91-2.949,34.033
		c-6.24,3.375-16.139,2.404-21.361-2.096c-7.023-6.051-9.75-14.633-6.426-22.264c1.479-3.396,3.826-6.597,6.426-9.253
		c1.623-1.657,2.531-3.086,2.141-5.198c-1.819-9.83,2.246-16.767,9.632-23.103c8.12-6.965,15.309-15.028,22.801-22.713
		c2.271-2.33,4.645-3.397,8.039-3.385c29.852,0.129,59.701,0.057,89.553,0.043C1001,617.666,1001,624.332,1001,631z
		 M880.943,674.645c-3.697,0.037-6.615,2.898-6.599,6.472c0.019,3.268,3.427,6.666,6.687,6.666c3.237,0,6.776-3.39,6.862-6.57
		C887.992,677.58,884.844,674.605,880.943,674.645z"/>
	<path fill="#000C7A" d="M731,1c0.008,7.302,0.08,14.606-0.039,21.906c-0.02,1.238-0.521,2.796-1.365,3.646
		c-20.727,20.854-41.508,41.654-62.381,62.358c-1.182,1.172-3.236,1.978-4.918,2.041c-6.396,0.238-12.813,0.278-19.205,0.029
		c-3.098-0.121-5.174,0.827-7.25,3.114c-6.551,7.218-14.766,8.768-23.545,4.81c-7.223-3.255-11.828-11.131-11.272-19.272
		c0.545-8.002,6.018-15.085,13.463-17.426c8.92-2.804,16.44-0.466,22.719,6.701c1.055,1.205,3.031,1.926,4.69,2.194
		c2.113,0.34,4.429-0.427,6.498,0.017c6.482,1.39,10.66-1.793,14.888-6.129c14.608-14.985,29.451-29.746,44.27-44.526
		c2.367-2.361,3.898-4.736,3.552-8.324C710.744,8.456,711.008,4.714,711,1C717.668,1,724.334,1,731,1z M627.861,81.28
		c-0.037-3.571-3.361-7.032-6.769-7.043c-3.235-0.011-6.737,3.379-6.846,6.627c-0.111,3.404,3.41,6.946,6.883,6.92
		C624.699,87.756,627.895,84.668,627.861,81.28z"/>
	<path fill="#000C7A" d="M801,1c0.049,27.42,0.119,54.841,0.074,82.262c-0.002,1.215-0.771,2.699-1.652,3.601
		c-8.844,9.065-17.785,18.034-26.293,26.619c2.418,4.077,5.49,7.911,7.103,12.284c2.625,7.11,0.385,13.701-4.74,19.045
		c-5.242,5.466-11.709,7.386-19.236,5.522c-8.391-2.077-13.215-7.718-14.938-15.744c-1.675-7.799,1.555-14.189,7.387-19.462
		c1.141-1.032,2.205-2.875,2.178-4.324c-0.053-2.953,0.957-4.963,3.037-6.99c8.506-8.281,16.875-16.703,25.199-25.167
		c0.969-0.984,1.918-2.545,1.92-3.842C781.111,50.203,781.041,25.601,781,1C787.668,1,794.334,1,801,1z M767.734,131.034
		c-0.015-3.304-3.31-6.702-6.56-6.765c-3.424-0.067-6.557,3.027-6.625,6.541c-0.072,3.668,3.176,7.116,6.613,7.022
		C764.318,137.746,767.746,134.2,767.734,131.034z"/>
	<path fill="#000C7A" d="M781,1001c0.041-13.576-0.023-27.154,0.232-40.727c0.036-2.011,1.106-4.451,2.514-5.91
		c8.344-8.652,16.979-17.023,25.365-25.638c1.084-1.114,1.78-3.073,1.819-4.661c0.188-7.554,0.199-15.117-0.012-22.668
		c-0.041-1.49-0.969-3.359-2.102-4.349c-8.152-7.1-10.169-18.438-4.578-26.928c5.799-8.803,17.116-11.865,26.771-6.418
		c10.914,6.156,14.252,21.242,4.342,31.063c-3.225,3.195-4.582,6.097-4.416,10.525c0.328,8.828,0.004,17.676,0.146,26.514
		c0.039,2.519-0.76,4.242-2.543,5.99c-8.394,8.225-16.732,16.514-24.869,24.992c-1.396,1.453-2.377,3.916-2.43,5.94
		c-0.277,10.752-0.197,21.515-0.242,32.271C794.334,1001,787.668,1001,781,1001z M827.662,880.824
		c-0.098-3.553-3.258-6.603-6.734-6.492c-3.34,0.104-6.539,3.439-6.504,6.779c0.035,3.328,3.387,6.77,6.6,6.776
		C824.535,887.898,827.76,884.467,827.662,880.824z"/>
	<path fill="#000C7A" d="M1001,571c-23.951,0.023-47.902,0.068-71.854,0.01c-1.236-0.002-2.781-0.586-3.654-1.438
		c-7.394-7.224-14.617-14.615-22.004-21.849c-1.773-1.735-2.828-3.51-2.431-6.018c0.353-2.213-0.495-3.603-2.385-5.031
		c-6.572-4.981-9.133-13.84-6.646-21.645c2.387-7.488,9.674-13.465,17.067-13.997c8.515-0.616,17.289,4.06,20.277,11.65
		c3.271,8.312,2.612,17.156-6.972,25.304c4.093,4.202,8.119,8.44,12.3,12.522c0.588,0.574,1.914,0.543,2.897,0.543
		c21.133,0.004,42.269-0.028,63.4-0.053C1001,557.666,1001,564.332,1001,571z M911.188,514.504c-3.477-0.104-6.776,2.894-6.93,6.299
		c-0.15,3.322,3.406,6.894,6.865,6.894c3.443,0,6.617-3.144,6.666-6.604C917.84,517.652,914.795,514.615,911.188,514.504z"/>
	<path fill="#000C7A" d="M1,271c13.833,0.001,27.667-0.058,41.498,0.087c1.549,0.016,3.453,0.808,4.567,1.887
		c7.432,7.19,14.762,14.491,21.943,21.932c1.156,1.198,1.956,3.264,1.981,4.942c0.148,9.858,0.066,19.721-0.054,29.581
		c-0.031,2.572,0.489,4.468,2.684,6.259c6.563,5.356,9.082,13.854,6.352,21.386c-2.775,7.657-8.242,12.66-16.426,13.759
		c-8.966,1.204-15.931-2.796-20.144-10.453c-4.743-8.622-2.459-18.97,5.539-25.508c1.067-0.872,2-2.583,2.034-3.931
		c0.194-7.68,0.188-15.37,0.019-23.051c-0.033-1.469-0.962-2.991-1.735-4.342c-0.484-0.846-1.625-1.299-2.171-2.127
		c-6.095-9.235-14.688-11.782-25.354-10.559C14.906,291.645,7.917,291.003,1,291C1,284.333,1,277.666,1,271z M61.046,344.288
		c-3.522-0.074-6.617,2.911-6.75,6.512c-0.128,3.464,3.324,7.048,6.753,7.009c3.623-0.041,6.762-3.062,6.76-6.504
		C67.806,347.624,64.665,344.364,61.046,344.288z"/>
	<path fill="#000C7A" d="M651,1001c0.063-16.789,0.174-33.578,0.131-50.365c-0.006-2.643,0.76-4.479,2.674-6.348
		c7.31-7.144,14.379-14.529,21.646-21.717c0.867-0.857,2.383-1.414,3.627-1.472c4.088-0.184,8.199,0.078,12.281-0.166
		c1.258-0.075,2.807-0.936,3.612-1.932c5.451-6.742,13.685-9.479,21.929-7.068c7.313,2.14,13.604,9.541,14.075,16.56
		c0.627,9.317-3.637,17.131-11.387,20.877c-7.965,3.848-19.254,1.006-24.574-6.185c-1.838-2.483-8.616-3.221-10.854-1.043
		c-4.031,3.927-8.056,7.869-11.857,12.013c-0.883,0.963-1.196,2.752-1.207,4.164c-0.1,14.227-0.082,28.453-0.098,42.682
		C664.334,1001,657.668,1001,651,1001z M710.979,924.639c-3.973,0.033-6.35,2.515-6.309,6.576c0.039,3.689,3.014,6.674,6.557,6.58
		c3.168-0.084,6.683-3.723,6.595-6.828C717.721,927.498,714.596,924.607,710.979,924.639z"/>
	<path fill="#000C7A" d="M1,841c26.638,0.016,53.277,0.063,79.915-0.037c1.343-0.004,3.06-0.951,3.961-2.006
		c7.138-8.359,18.677-10.412,27.202-4.662c8.883,5.994,11.491,17.486,6.165,27.174c-5.679,10.332-22.035,13.127-30.146,4.586
		c-3.834-4.039-7.658-5.147-12.947-5.1C50.436,861.188,25.717,861.021,1,861C1,854.332,1,847.666,1,841z M107.813,851.123
		c0.061-3.199-3.375-6.688-6.668-6.771c-3.196-0.079-6.876,3.396-6.938,6.556c-0.065,3.295,3.239,6.791,6.528,6.906
		C104.32,857.939,107.745,854.701,107.813,851.123z"/>
	<path fill="#000C7A" d="M671,1c0.016,7.299,0.113,14.601-0.031,21.897c-0.026,1.337-0.725,2.97-1.66,3.93
		c-7.414,7.603-14.909,15.126-22.524,22.525c-1.025,0.997-2.855,1.616-4.322,1.637c-9.731,0.14-19.469,0.166-29.199,0.011
		c-3.143-0.05-5.307,0.691-7.45,3.307c-5.371,6.546-14.853,8.515-22.293,5.228c-8.382-3.701-13.146-11.425-12.394-20.092
		c0.756-8.732,6.982-16.183,15.313-17.997c8.457-1.841,15.258,1.038,20.797,7.55c0.891,1.046,2.594,1.932,3.944,1.964
		c7.681,0.187,15.369,0.203,23.048-0.001c1.545-0.041,3.321-0.973,4.53-2.024c3.074-2.675,5.842-5.701,8.82-8.491
		c2.432-2.276,3.896-4.726,3.539-8.312C650.75,8.454,651.014,4.713,651,1C657.668,1,664.334,1,671,1z M591.264,34.292
		c-3.182-0.089-6.772,3.252-6.928,6.444c-0.17,3.454,2.783,6.527,6.416,6.68c3.754,0.159,7.109-2.829,7.152-6.37
		C597.943,37.895,594.488,34.382,591.264,34.292z"/>
	<path fill="#000C7A" d="M541,1001c0.002-7.037-0.102-14.076,0.09-21.105c0.043-1.586,0.75-3.471,1.791-4.653
		c3.111-3.539,6.644-6.705,9.812-10.197c2.739-3.02,5.782-4.381,10.006-4.117c6.244,0.392,12.537,0.254,18.797,0.031
		c2.834-0.102,4.863,0.674,6.576,2.896c1.082,1.403,2.774,2.36,3.735,3.821c2.828,4.291,7.076,3.427,11.045,3.109
		c1.045-0.084,2.054-1.646,2.933-2.656c7.447-8.543,19.531-9.518,28.094-2.231c8.482,7.217,9.83,20.043,2.363,27.989
		c-2.845,3.027-7.043,4.781-10.625,7.115c-3.076,0-6.152,0-9.23,0c-3.125-1.908-7.123-3.16-9.17-5.879
		c-3.057-4.062-6.576-4.557-10.897-4.178c-1.398,0.123-2.841-0.15-4.222,0.051c-3.938,0.574-6.948-0.764-9.297-3.938
		c-3.502-4.735-7.947-6.916-14.102-6.153c-4.869,0.604-7.672,2.864-7.688,7.801c-0.012,4.098-0.008,8.197-0.01,12.297
		C554.334,1001,547.668,1001,541,1001z M627.803,981.211c0.074-3.602-2.842-6.523-6.541-6.555c-3.77-0.031-6.762,2.639-6.975,6.223
		c-0.195,3.314,3.354,6.928,6.801,6.926C624.502,987.801,627.73,984.629,627.803,981.211z"/>
	<path fill="#000C7A" d="M1001,291c-10.893,0.004-21.787-0.076-32.678,0.1c-1.691,0.027-3.777,0.798-4.979,1.954
		c-7.188,6.919-14.217,14.004-21.155,21.172c-0.851,0.878-1.302,2.629-1.17,3.896c1.293,12.425-7.875,22.982-20.066,22.931
		c-11.373-0.047-20.389-9.674-19.881-21.229c0.49-11.179,10.67-19.984,21.922-18.567c2.701,0.34,4.199-0.423,5.938-2.19
		c8.777-8.926,17.625-17.783,26.588-26.522c0.998-0.974,2.873-1.46,4.349-1.472c13.711-0.111,27.422-0.069,41.135-0.071
		C1001,277.666,1001,284.333,1001,291z M927.883,320.883c-0.041-3.226-3.541-6.582-6.836-6.555c-3.301,0.027-6.76,3.429-6.74,6.631
		c0.021,3.67,3.234,6.691,7.002,6.583C924.842,327.44,927.93,324.313,927.883,320.883z"/>
	<path fill="#000C7A" d="M941,1001c0.01-5.641,0.416-11.318-0.086-16.912c-0.467-5.205,0.955-9.334,5.123-12.17
		c4.559-3.102,5.16-7.291,5.006-12.301c-0.283-9.224,0.037-18.461-0.186-27.688c-0.041-1.748-0.992-3.957-2.277-5.114
		c-9.682-8.718-10.201-22.474-0.305-30.947c5.813-4.978,13.008-6.627,20.444-3.264c7.132,3.223,11.597,8.598,12.281,16.676
		c0.639,7.545-2.303,13.383-8.141,18.067c-1.054,0.847-1.8,2.711-1.813,4.113c-0.135,13.332-0.164,26.666-0.016,39.996
		c0.031,2.805-0.492,5.09-2.805,6.668c-6.265,4.271-8.386,10.152-7.236,17.498c0.272,1.748,0.02,3.582,0.008,5.377
		C954.334,1001,947.668,1001,941,1001z M961.154,917.797c3.27-0.029,6.637-3.391,6.692-6.68c0.056-3.285-3.694-7.037-6.928-6.928
		c-3.449,0.114-6.223,3.243-6.19,6.981C954.758,914.938,957.564,917.828,961.154,917.797z"/>
	<path fill="#000C7A" d="M1,161c22.796-0.016,45.592-0.081,68.388,0.018c2.796,0.012,4.812-0.596,6.481-2.922
		c6.072-8.465,21.489-10.297,30.293-0.224c5.682,6.502,6.513,16.074,1.6,24.214c-4.009,6.642-13.292,10.081-21.066,8.348
		c-4.925-1.098-8.504-3.779-11.786-7.34c-0.964-1.046-2.635-2.037-3.986-2.043C47.617,180.939,24.308,180.987,1,181
		C1,174.333,1,167.666,1,161z M91.151,164.211c-3.209-0.071-6.675,3.225-6.845,6.509c-0.175,3.38,3.244,7.014,6.67,7.091
		c3.116,0.07,6.743-3.372,6.897-6.544C98.037,167.913,94.582,164.287,91.151,164.211z"/>
	<path fill="#000C7A" d="M1001,181c-7.17-0.016-14.342,0.062-21.506-0.125c-1.477-0.038-3.293-0.69-4.332-1.698
		c-7.523-7.293-14.947-14.692-22.238-22.216c-1.088-1.123-1.82-3.051-1.875-4.635c-0.213-6.138-0.281-12.297-0.012-18.431
		c0.156-3.56-0.738-5.986-3.574-8.464c-8.213-7.183-8.568-19.168-1.297-27.473c7.041-8.039,19.061-9.222,27.313-2.688
		c10.291,8.152,10.32,23.514-0.143,31.521c-1.904,1.457-2.551,2.807-2.402,5.011c0.154,2.294,0.357,4.663-0.028,6.901
		c-1.054,6.112,1.362,10.561,6.084,14.097c0.102,0.077,0.227,0.146,0.289,0.249c5.674,9.319,14.823,8.26,23.723,7.95
		C1001,167.666,1001,174.333,1001,181z M967.838,111.137c0.111-3.212-3.221-6.727-6.518-6.876c-3.545-0.16-6.51,2.736-6.607,6.454
		c-0.104,3.975,2.748,7.174,6.377,7.152C964.248,117.848,967.727,114.379,967.838,111.137z"/>
	<path fill="#000C7A" d="M151,1001c0.007-7.557,0.115-15.115-0.057-22.666c-0.037-1.617-0.677-3.576-1.737-4.746
		c-3.774-4.162-7.802-8.102-11.861-11.99c-0.648-0.623-1.995-0.889-2.946-0.764c-9.148,1.207-17.835-3.207-21.296-10.947
		c-3.983-8.905-1.892-18.299,5.398-24.244c7.228-5.893,16.753-6.315,24.488-0.627c6.272,4.613,8.53,11.183,8.033,18.877
		c-0.088,1.365,0.372,3.181,1.273,4.127c5.37,5.634,11.039,10.984,16.38,16.646c1.235,1.309,2.208,3.441,2.242,5.215
		c0.202,10.369,0.089,20.746,0.082,31.119C164.333,1001,157.667,1001,151,1001z M130.885,947.844
		c3.15,0.099,6.708-3.227,6.944-6.487c0.233-3.228-3.327-7.031-6.677-7.134c-3.408-0.104-6.868,3.354-6.883,6.875
		C124.255,944.396,127.532,947.738,130.885,947.844z"/>
	<path fill="#000C7A" d="M561,1c0.002,7.302,0.068,14.604-0.059,21.903c-0.021,1.232-0.554,2.755-1.39,3.626
		c-5.221,5.438-10.535,10.789-15.948,16.034c-1.962,1.898-2.837,3.778-2.701,6.653c0.576,12.402-7.929,21.747-19.533,21.839
		c-11.885,0.095-20.84-9.389-20.344-21.544c0.438-10.719,10.713-19.479,21.869-18.266c2.653,0.289,4.399-0.18,5.889-2.224
		c0.297-0.406,0.75-0.693,1.108-1.058c3.664-3.736,8.74-6.895,10.587-11.381C542.33,12.077,540.959,6.248,541,1
		C547.668,1,554.334,1,561,1z M527.697,51.121c0.11-3.425-2.933-6.624-6.433-6.763c-3.479-0.139-6.68,2.834-6.805,6.324
		c-0.139,3.851,2.367,6.605,6.176,6.788C524.619,57.662,527.57,55.007,527.697,51.121z"/>
	<path fill="#000C7A" d="M1,551c0.512,0.023,1.024,0.061,1.536,0.066c14.513,0.133,14.446,0.067,24.634-10.316
		c2.741-2.795,4.444-5.203,4.129-9.693c-0.721-10.287,6.833-18.309,17.404-19.815c10.005-1.426,19.071,4.981,21.992,15.549
		c2.38,8.606-3.168,19.402-12.142,22.652c-3.255,1.18-6.994,0.971-10.472,1.612c-1.615,0.299-3.518,0.715-4.629,1.771
		c-5.653,5.379-11.04,11.039-16.652,16.463c-0.966,0.934-2.563,1.68-3.884,1.705C15.613,571.135,8.306,571.023,1,571
		C1,564.332,1,557.666,1,551z M50.823,524.441c-3.451,0.075-6.543,3.301-6.447,6.725c0.099,3.533,3.144,6.492,6.643,6.457
		c4.014-0.039,6.67-2.82,6.546-6.857C57.458,527.238,54.392,524.363,50.823,524.441z"/>
	<path fill="#000C7A" d="M711,1001c0.008-6.924,0.092-13.848-0.018-20.77c-0.039-2.316,0.491-4,2.313-5.646
		c3.976-3.594,7.537-7.645,11.519-11.232c1.336-1.205,3.395-2.086,5.18-2.198c2.443-0.154,4.162-0.65,5.77-2.728
		c6.922-8.936,18.855-9.936,28.326-2.582c7.773,6.035,9.062,18.193,3.422,26.691c-7.34,11.059-24.905,11.057-31.992,0.992
		c-0.282-0.402-0.731-0.688-2.051-1.896c-0.942,2.58-2.17,4.59-2.342,6.687c-0.348,4.2-0.119,8.452-0.127,12.684
		C724.334,1001,717.668,1001,711,1001z M751.285,964.617c-4.258-0.035-6.676,2.358-6.646,6.574c0.027,3.745,2.797,6.543,6.48,6.547
		c3.342,0.004,6.674-3.289,6.676-6.597C757.799,967.445,755.01,964.648,751.285,964.617z"/>
	<path fill="#000C7A" d="M311,1c0.003,9.472,0.127,18.947-0.065,28.415c-0.058,2.855,0.872,4.64,2.992,6.481
		c9.423,8.178,9.606,21.514,0.545,29.929c-5.233,4.861-14.768,7.662-23.752,2.326c-6.48-3.849-10.56-11.997-9.482-19.887
		c0.735-5.385,3.27-9.668,7.464-12.9c1.857-1.432,2.376-2.953,2.351-5.179C290.942,20.457,291.002,10.728,291,1
		C297.667,1,304.333,1,311,1z M307.608,50.964c0-3.469-3.019-6.531-6.516-6.61c-3.471-0.078-6.666,3.004-6.725,6.487
		c-0.059,3.535,2.867,6.575,6.403,6.652C304.88,57.583,307.608,54.978,307.608,50.964z"/>
	<path fill="#000C7A" d="M231,1c0.003,9.729,0.064,19.458-0.035,29.186c-0.022,2.222,0.532,3.692,2.372,5.166
		c7.596,6.08,9.809,16.574,5.503,24.812c-4.223,8.079-14.019,12.674-22.193,10.41c-10.148-2.811-16.337-11.021-15.632-21.19
		c0.399-5.742,3.333-10.258,7.56-14.143c1.28-1.177,2.294-3.327,2.333-5.056C211.124,20.459,211.004,10.728,211,1
		C217.667,1,224.333,1,231,1z M227.684,50.802c-0.079-3.496-3.242-6.497-6.769-6.422c-3.663,0.078-6.607,3.288-6.438,7.018
		c0.175,3.85,2.822,6.212,6.832,6.094C224.848,57.387,227.763,54.328,227.684,50.802z"/>
	<path fill="#000C7A" d="M171,1c0.007,9.862-0.072,19.726,0.115,29.585c0.028,1.486,0.929,3.371,2.052,4.357
		c9.737,8.545,10.54,20.882,1.803,30.384c-8.429,9.167-25.426,6.87-31.228-4.221c-4.989-9.538-3.277-18.774,4.987-25.75
		c1.733-1.463,2.387-2.902,2.354-5.154C150.944,20.469,151.009,10.733,151,1C157.667,1,164.333,1,171,1z M160.88,44.337
		c-3.31,0.083-6.749,3.49-6.728,6.664c0.024,3.568,3.434,6.706,7.134,6.564c3.553-0.137,6.563-3.293,6.456-6.773
		C167.639,47.431,164.259,44.251,160.88,44.337z"/>
	<path fill="#000C7A" d="M1,611c9.727,0.018,19.455-0.023,29.181,0.096c2.221,0.027,3.648-0.576,5.152-2.367
		c8.087-9.622,20.682-10.352,29.661-1.924c6.958,6.533,8.074,17.162,2.69,25.601c-4.459,6.983-15.236,10.719-23.073,7.463
		c-3.179-1.32-6.132-3.59-8.634-6.002c-1.983-1.91-3.73-2.933-6.564-2.881C19.944,631.156,10.471,631.02,1,631
		C1,624.332,1,617.666,1,611z M57.551,621.045c-0.005-3.568-3-6.729-6.458-6.813c-3.188-0.08-6.623,3.321-6.717,6.649
		c-0.104,3.676,3.139,6.996,6.735,6.898C54.708,627.684,57.556,624.705,57.551,621.045z"/>
	<path fill="#000C7A" d="M901,1c0.023,6.141,0.24,12.289-0.014,18.418c-0.125,3.022,1.035,4.882,3.215,6.689
		c5.988,4.964,7.824,11.578,6.371,18.954c-1.533,7.785-6.455,12.918-14.043,15.199c-8.685,2.61-18.513-1.49-22.688-9.208
		c-4.94-9.133-3.274-19.076,4.67-25.487c2.086-1.683,2.67-3.294,2.605-5.761C880.953,13.539,881.023,7.268,881,1
		C887.668,1,894.334,1,901,1z M897.801,40.81c-0.106-3.295-3.561-6.612-6.793-6.525c-3.234,0.087-6.715,3.542-6.734,6.685
		c-0.022,3.468,3.48,6.711,7.087,6.561C894.953,47.378,897.914,44.289,897.801,40.81z"/>
	<path fill="#000C7A" d="M1,361c2.563,0.018,5.189,0.405,7.675-0.024c5.248-0.906,8.775,1.555,11.792,5.285
		c2.72,3.362,5.573,5.113,10.493,4.946c11.254-0.382,18.211,7.536,19.913,17.137c1.763,9.947-5.081,19.418-14.907,22.021
		c-9.533,2.523-20.097-2.651-23.505-11.864c-0.993-2.683-1.316-5.762-1.27-8.65c0.095-5.951-2.309-8.728-8.27-8.789
		C2.28,381.055,1.64,381.021,1,381C1,374.333,1,367.666,1,361z M31.064,384.214c-3.233-0.084-6.602,3.28-6.668,6.658
		c-0.067,3.441,3.017,6.771,6.403,6.916c3.406,0.144,6.577-2.873,6.769-6.438C37.77,387.589,34.781,384.311,31.064,384.214z"/>
	<path fill="#000C7A" d="M271,1c0,1.151,0.014,2.302-0.002,3.452c-0.068,4.849-0.266,8.988,4.49,12.986
		c6.579,5.531,7.234,15.015,3.635,22.173c-3.839,7.637-11.387,11.943-19.993,11.409c-7.425-0.461-14.868-6.574-17.313-14.221
		c-2.351-7.351,0.012-16.421,6.01-20.758c2.671-1.932,3.476-3.959,3.231-6.991C250.842,6.383,251.004,3.685,251,1
		C257.667,1,264.333,1,271,1z M267.666,31.295c0.131-3.466-2.941-6.802-6.381-6.931c-3.494-0.13-6.709,2.874-6.853,6.405
		c-0.145,3.543,2.71,6.582,6.335,6.742C264.351,37.668,267.533,34.802,267.666,31.295z"/>
	<path fill="#000C7A" d="M1,311c1.343-0.678,3.088-1.023,3.964-2.086c6.187-7.513,16.635-10.092,24.848-5.919
		c8.617,4.378,13.06,14.116,10.572,23.169c-2.621,9.536-11.442,15.786-21.452,14.785c-5.361-0.537-9.89-2.987-13.43-7.287
		C4.461,332.396,2.526,331.866,1,331C1,324.333,1,317.666,1,311z M21.034,314.354c-3.444,0.014-6.621,3.147-6.634,6.542
		c-0.015,3.92,2.787,6.662,6.748,6.604c3.741-0.054,6.485-2.826,6.467-6.532C27.598,317.45,24.503,314.34,21.034,314.354z"/>
	<path fill="#000C7A" d="M1001,751c-1.254,0.613-2.943,0.898-3.695,1.893c-7.205,9.5-19.813,10.605-28.203,4.173
		c-8.719-6.683-10.633-17.808-4.266-27.605c6.879-10.588,23.623-11.313,31.406-1.359c1.225,1.566,2.158,3.597,4.758,2.9
		C1001,737.666,1001,744.332,1001,751z M987.818,741.094c0.022-3.518-3.037-6.512-6.656-6.516c-3.832,0-6.438,2.629-6.445,6.51
		c-0.01,3.777,2.709,6.584,6.418,6.631C984.486,747.76,987.795,744.48,987.818,741.094z"/>
	<path fill="#000C7A" d="M1001,331c-1.354,0.698-3.133,1.06-3.996,2.148c-7.656,9.662-19.652,10.114-27.906,3.905
		c-7.926-5.962-11.709-17.604-3.879-28.254c7.392-10.053,23.271-10.681,31.599-0.229c0.938,1.175,2.768,1.637,4.184,2.43
		C1001,317.666,1001,324.333,1001,331z M981.367,314.351c-3.637-0.121-6.588,2.758-6.652,6.486c-0.07,4.091,2.244,6.565,6.234,6.658
		c3.77,0.088,6.621-2.515,6.875-6.271C988.035,318.08,984.635,314.459,981.367,314.351z"/>
	<path fill="#000C7A" d="M1001,381c-1.527,0.896-3.434,1.469-4.523,2.742c-5.348,6.256-12.049,8.454-19.895,6.674
		c-8.236-1.869-13.26-7.295-15.117-15.479c-1.93-8.501,2.717-17.981,10.475-21.83c8.23-4.084,18.058-2.145,24.068,4.644
		c1.33,1.5,2.113,4.05,4.992,3.249C1001,367.666,1001,374.333,1001,381z M981.1,377.783c3.355,0.018,6.597-3.167,6.729-6.615
		c0.123-3.236-3.609-7.043-6.816-6.951c-3.565,0.102-6.346,3.12-6.334,6.876C974.689,374.841,977.496,377.764,981.1,377.783z"/>
	<path fill="#000C7A" d="M221.124,121.059c44.091,0,88.183-0.008,132.272,0.024c2.248,0.002,3.962-0.366,5.683-2.213
		c5.038-5.405,10.333-10.582,15.729-15.632c1.244-1.164,3.238-1.764,4.988-2.11c10.726-2.124,19.424,0.96,25.713,10.207
		c5.641,8.293,13.516,10.014,23.34,9.864c37.676-0.574,75.364-0.261,113.048-0.141c1.768,0.006,3.965,0.893,5.225,2.124
		c11.895,11.613,23.658,23.362,35.383,35.148c1.824,1.834,3.646,2.777,6.346,2.693c6.658-0.208,13.334-0.235,19.99,0.006
		c3.076,0.112,5.24-0.679,7.213-3.103c6.377-7.833,17.076-8.387,24.377-4.664c6.729,3.431,11.084,11.063,10.599,19.386
		c-0.431,7.354-5.754,14.512-12.576,16.911c-9.025,3.172-16.752,1.253-23.088-6.201c-1.631-1.919-3.187-2.464-5.508-2.441
		c-9.611,0.096-19.229-0.078-28.839,0.106c-3.067,0.059-5.227-0.851-7.381-3.042c-11.53-11.733-23.166-23.366-34.918-34.878
		c-1.256-1.229-3.498-2.042-5.283-2.047c-40.882-0.115-81.764-0.125-122.645-0.02c-2.963,0.007-5.08-0.878-7.055-2.924
		c-5.063-5.242-10.276-10.338-15.317-15.599c-1.729-1.803-2.947-1.824-4.71-0.008c-5.432,5.594-10.941,11.12-16.598,16.486
		c-1.14,1.081-3.06,1.896-4.62,1.898c-73.057,0.091-146.113,0.079-219.17,0.08c-20.873,0-41.746-0.037-62.618,0.059
		c-2.606,0.012-4.602-0.56-6.466-2.466c-7.235-7.392-14.661-14.597-21.833-22.048c-0.975-1.013-1.27-3.019-1.281-4.57
		c-0.095-13.454-0.085-26.909-0.015-40.363c0.011-2.063-0.515-3.317-2.304-4.684c-9.264-7.078-10.4-20.728-2.674-29.256
		c7.993-8.823,21.624-8.774,29.943,0.106c7.496,8,6.422,21.47-2.475,28.724c-1.882,1.535-2.594,3.01-2.565,5.419
		c0.131,10.633-0.064,21.27,0.131,31.901c0.033,1.78,1.108,3.767,2.237,5.249c1.616,2.119,4.01,3.656,5.57,5.806
		c3.862,5.323,8.925,6.305,15.26,6.264c42.296-0.272,84.595-0.141,126.893-0.141C221.124,120.998,221.124,121.028,221.124,121.059z
		 M637.881,171.101c0.043-3.433-3.434-6.916-6.889-6.904c-3.258,0.012-6.592,3.343-6.68,6.677c-0.093,3.417,3.418,6.982,6.827,6.938
		C634.365,177.769,637.842,174.309,637.881,171.101z M67.817,50.887c-0.03-3.323-3.309-6.512-6.74-6.556
		c-3.404-0.044-6.715,3.169-6.752,6.553c-0.04,3.696,3.141,6.727,6.935,6.607C64.979,57.374,67.848,54.483,67.817,50.887z"/>
	<path fill="#000C7A" d="M529.484,890.973c10.256,0.004,20.51-0.051,30.764,0.047c2.197,0.023,3.637-0.51,5.168-2.293
		c8.984-10.461,23.137-10.2,31.844,0.398c4.687,5.703,5.027,15.949,0.758,22.811c-4.168,6.705-13.62,10.445-21.024,8.742
		c-4.877-1.121-8.826-3.545-11.726-7.414c-1.45-1.938-2.938-2.328-5.108-2.321c-23.328,0.057-46.656,0.079-69.985-0.056
		c-1.798-0.01-4.057-0.799-5.312-2.031c-14.262-13.989-28.391-28.116-42.463-42.297c-0.846-0.852-1.305-2.459-1.311-3.717
		c-0.084-17.803-0.101-35.604,0.02-53.406c0.01-1.45,0.757-3.26,1.779-4.289c25.04-25.196,50.143-50.329,75.315-75.395
		c1.951-1.943,2.889-3.789,2.871-6.625c-0.131-21.02-0.131-42.041,0.031-63.063c0.016-1.888,1.002-4.228,2.331-5.574
		c16.423-16.654,32.99-33.166,49.525-49.707c5.424-5.426,10.92-10.783,16.254-16.295c0.939-0.974,1.744-2.558,1.76-3.867
		c0.14-11.279,0.146-22.562,0-33.838c-0.016-1.258-0.893-2.888-1.895-3.693c-12.141-9.777-10.346-27.293,3.594-34.223
		c6.773-3.367,16.277-1.83,22.162,3.588c5.609,5.162,7.947,14.242,4.975,21.125c-1.278,2.961-3.053,6.027-5.422,8.115
		c-2.584,2.278-3.461,4.467-3.407,7.813c0.2,12.56-0.037,25.123,0.17,37.682c0.053,3.164-1.144,5.188-3.244,7.277
		c-21.396,21.275-42.695,42.65-64.107,63.908c-2.07,2.057-2.854,4.117-2.84,7.008c0.111,20.896,0.107,41.787-0.039,62.68
		c-0.012,1.771-0.865,3.982-2.1,5.226c-25.314,25.496-50.756,50.867-76.097,76.338c-0.945,0.951-1.61,2.639-1.624,3.99
		c-0.119,12.424-0.09,24.85-0.016,37.271c0.006,1.025,0.371,2.334,1.057,3.027c10.328,10.426,20.689,20.822,31.197,31.065
		c1.186,1.154,3.302,1.875,5.001,1.902C508.719,891.057,519.104,890.969,529.484,890.973z M587.834,901.01
		c-0.061-3.584-3.432-6.822-6.977-6.699c-3.287,0.113-6.541,3.515-6.531,6.82c0.01,3.197,3.453,6.693,6.643,6.744
		C584.406,907.93,587.893,904.443,587.834,901.01z M607.807,530.91c-0.08-3.394-3.313-6.471-6.795-6.467
		c-3.408,0.004-6.709,3.229-6.733,6.58c-0.023,3.534,3.459,6.801,7.057,6.616C604.963,537.457,607.891,534.412,607.807,530.91z"/>
	<path fill="#000C7A" d="M521.729,271.002c-39.994,0.001-79.988-0.047-119.982,0.081c-3.631,0.012-6.032-1.081-8.572-3.684
		c-12.047-12.343-24.361-24.424-36.578-36.603c-5.97-5.953-11.879-11.969-17.949-17.818c-1.054-1.014-2.771-1.888-4.186-1.895
		c-25.64-0.106-51.281-0.095-76.922,0.008c-1.33,0.005-2.873,0.79-3.938,1.67c-2.065,1.707-3.782,3.827-5.782,5.622
		c-4.388,3.938-7.516,7.75-7.293,14.69c0.299,9.323-8.237,17.185-16.924,17.878c-11.006,0.878-19.907-5.539-22.425-16.168
		c-1.976-8.335,3.114-18.213,11.808-21.755c3.296-1.343,7.16-1.255,10.732-1.978c1.578-0.319,3.467-0.62,4.546-1.639
		c5.763-5.44,11.264-11.157,16.987-16.641c0.967-0.927,2.572-1.68,3.884-1.684c31.282-0.093,62.564-0.094,93.847-0.003
		c1.342,0.004,3.017,0.708,3.971,1.656c18.538,18.409,37.048,36.845,55.384,55.454c2.135,2.167,4.129,2.869,6.989,2.864
		c37.683-0.071,75.367-0.047,113.051-0.047c43.07,0,86.141,0.022,129.209-0.054c2.641-0.004,4.502,0.727,6.365,2.621
		c12.205,12.409,24.514,24.715,36.865,36.981c0.637,0.633,2.008,0.942,2.942,0.798c7.619-1.166,13.879,1.314,18.801,7.055
		c5.07,5.912,5.517,12.857,3.191,19.884c-2.625,7.935-11.018,13.005-19.967,12.681c-7.922-0.287-15.676-6.274-17.83-14.065
		c-0.67-2.421-1.332-5.184-0.799-7.517c0.771-3.385-0.898-5.151-2.873-7.119c-9.681-9.647-19.281-19.374-29.09-28.89
		c-1.357-1.317-3.701-2.281-5.591-2.287C602.977,270.97,562.352,271.001,521.729,271.002z M227.682,231.184
		c0.101-3.742-2.819-6.673-6.658-6.682c-3.78-0.008-6.315,2.367-6.51,6.099c-0.21,4.044,2.384,6.909,6.398,7.063
		C224.347,237.798,227.587,234.694,227.682,231.184z M694.604,311.01c0.025,3.943,2.916,6.875,6.722,6.817
		c3.283-0.049,6.438-3.431,6.412-6.874c-0.023-3.41-3.287-6.649-6.672-6.623C697.477,304.358,694.58,307.353,694.604,311.01z"/>
	<path fill="#000C7A" d="M466.517,401.048c-18.714,0-37.429-0.058-56.143,0.064c-2.693,0.018-4.555-0.897-6.361-2.708
		c-27.038-27.086-54.116-54.131-81.167-81.203c-7.604-7.61-15.203-15.226-22.702-22.939c-2.172-2.234-4.383-3.469-7.679-3.341
		c-6.904,0.267-13.831,0.228-20.738,0.003c-2.534-0.082-3.961,0.944-5.397,2.744c-6.23,7.808-17.39,9.786-25.469,4.609
		c-9.108-5.836-12.416-16.422-8.034-25.713c6.354-13.472,24.972-15.486,34.094-3.812c0.97,1.241,3.058,2.241,4.645,2.267
		c9.992,0.166,19.991,0.125,29.984-0.08c2.836-0.059,4.611,0.942,6.578,2.936c15.546,15.762,31.255,31.365,46.913,47.017
		c18.188,18.181,36.449,36.289,54.498,54.605c3.778,3.834,7.475,5.76,13.182,5.709c36.272-0.329,72.549-0.148,108.824-0.226
		c2.623-0.005,4.545,0.661,6.404,2.582c6.854,7.085,13.969,13.919,20.76,21.064c1.299,1.367,2.199,3.717,2.207,5.618
		c0.131,33.318,0.117,66.638,0.045,99.958c-0.004,2.248,0.561,3.75,2.379,5.168c8.131,6.336,10.029,16.496,4.988,25.762
		c-4.316,7.935-14.695,11.924-23.426,9.006c-9.632-3.221-15.002-12.317-13.496-22.604c0.748-5.119,3.557-8.861,7.211-12.269
		c1.137-1.061,2.289-2.825,2.295-4.271c0.127-31.123,0.119-62.247,0.014-93.37c-0.006-1.419-0.904-3.05-1.852-4.205
		c-1.689-2.063-4.07-3.606-5.564-5.78c-4.129-6.011-9.805-6.89-16.619-6.724C500.107,401.322,483.309,401.048,466.517,401.048z
		 M257.663,281.099c0.073-3.458-2.958-6.575-6.479-6.666c-3.557-0.091-6.599,2.803-6.709,6.382
		c-0.114,3.693,2.583,6.637,6.227,6.796C254.52,287.779,257.583,284.915,257.663,281.099z M550.707,537.641
		c3.83,0.185,6.561-2.274,6.824-6.145c0.256-3.764-2.621-6.984-6.328-7.086c-3.433-0.092-6.729,3.02-6.813,6.426
		C544.307,534.299,547.256,537.477,550.707,537.641z"/>
	<path fill="#000C7A" d="M783.795,791.709c-4.166,4.402-8.076,8.43-11.824,12.6c-0.662,0.736-0.901,2.076-0.914,3.142
		c-0.073,7.944-0.127,15.895,0.047,23.838c0.027,1.25,0.947,2.809,1.939,3.654c7.41,6.317,10.023,14.778,6.898,22.987
		c-3.306,8.678-11.056,13.654-20.869,12.938c-2.629-0.193-4.248,0.561-5.98,2.326c-8.33,8.481-16.803,16.823-25.146,25.295
		c-1.816,1.846-3.699,2.649-6.361,2.625c-16.916-0.158-33.838,0.008-50.752-0.271c-4.26-0.07-7.086,1.508-9.922,4.387
		c-13.896,14.101-28,27.992-41.877,42.107c-2.627,2.67-5.295,3.729-9.049,3.717c-36.916-0.133-73.83-0.053-110.747-0.137
		c-2.783-0.008-4.892,0.551-6.649,2.813c-1.325,1.703-2.956,3.205-4.608,4.609c-4.697,3.99-7.595,8.195-7.27,15.178
		c0.442,9.496-9.47,17.488-19.712,17.447c-10.589-0.043-19.428-8.195-19.953-18.404c-0.676-13.139,10.442-23.184,23.498-21.477
		c1.334,0.176,3.174-0.978,4.28-2.035c5.443-5.211,10.625-10.699,16.123-15.85c1.298-1.218,3.458-2.134,5.225-2.14
		c37.044-0.121,74.087-0.188,111.13,0.037c4.447,0.025,7.433-1.557,10.301-4.44c11.271-11.328,22.589-22.605,33.88-33.912
		c1.442-1.443,3.082-2.775,4.198-4.447c4.244-6.354,10.103-7.676,17.47-7.418c15.489,0.545,31.014,0.234,46.521,0.066
		c1.775-0.021,3.939-0.951,5.234-2.187c7.026-6.682,13.893-13.537,20.657-20.484c0.941-0.969,1.537-2.813,1.427-4.18
		c-0.615-7.598,1.811-13.922,7.717-18.66c1.848-1.483,2.381-2.909,2.359-5.119c-0.104-9.987,0.038-19.979-0.107-29.967
		c-0.039-2.526,0.762-4.266,2.529-5.989c6.959-6.785,13.879-13.617,20.61-20.625c1.943-2.025,3.851-2.869,6.627-2.843
		c1.472,0.015,3.429-0.869,4.353-2.01c5.879-7.24,16.264-9.881,24.553-5.973c8.088,3.813,13.107,13.502,11.248,21.92
		c-2.412,10.93-12.377,16.572-20.057,16.236C793.791,800.756,788.797,797.498,783.795,791.709z M807.623,781.193
		c0.098-3.713-2.545-6.492-6.334-6.658c-3.57-0.156-6.709,2.709-6.848,6.252c-0.146,3.67,2.957,6.904,6.612,6.893
		C804.84,787.67,807.523,785.02,807.623,781.193z M761.037,857.82c3.305,0.01,6.6-3.232,6.69-6.584
		c0.095-3.338-3.495-6.986-6.799-6.91c-3.364,0.076-6.379,3.305-6.362,6.82C754.582,854.748,757.551,857.811,761.037,857.82z
		 M461.102,964.605c-4.011-0.027-6.386,2.35-6.436,6.44c-0.047,3.81,2.686,6.672,6.392,6.699c3.315,0.021,6.722-3.336,6.731-6.642
		C467.8,967.629,464.715,964.631,461.102,964.605z"/>
	<path fill="#000C7A" d="M511.107,510.145c0.002,19.736,0.069,39.476-0.072,59.209c-0.023,3.013,0.998,4.886,3.186,6.82
		c6.554,5.797,8.703,14.66,5.677,21.959c-3.371,8.125-10.841,13.068-19.524,12.92c-7.896-0.137-15.501-5.682-18.428-13.438
		c-2.658-7.047-0.43-16.17,5.792-21.293c2.616-2.152,3.27-4.377,3.263-7.523c-0.081-36.627-0.003-73.255-0.154-109.882
		c-0.009-2.126-1.165-4.658-2.598-6.288c-3.54-4.028-6.945-9.09-11.543-11.014c-4.596-1.921-10.575-0.583-15.947-0.588
		c-23.447-0.021-46.895-0.06-70.341,0.059c-2.693,0.013-4.555-0.873-6.356-2.684c-13.175-13.237-26.413-26.41-39.603-39.633
		c-17.783-17.828-35.572-35.647-53.272-53.556c-2.832-2.865-5.7-4.941-9.971-4.175c-1.242,0.223-2.566,0.131-3.837,0.017
		c-5.223-0.469-9.395,0.292-13.322,4.904c-5.215,6.126-14.82,6.582-22.764,2.668c-6.643-3.271-10.989-11.767-10.231-20.001
		c0.675-7.342,6.701-14.5,13.997-16.611c8.834-2.557,16.014-0.001,21.985,6.846c0.983,1.127,2.83,2.058,4.307,2.103
		c7.042,0.219,14.099-0.013,21.142,0.191c1.576,0.045,3.51,0.804,4.62,1.901c17.201,17.004,34.302,34.108,51.406,51.21
		c14.746,14.744,29.489,29.491,44.166,44.304c1.739,1.756,3.489,2.508,5.999,2.5c27.796-0.088,55.593-0.096,83.388,0.038
		c1.767,0.008,3.941,0.917,5.223,2.143c7.474,7.155,14.8,14.47,22.005,21.897c1.07,1.104,1.728,3.09,1.734,4.674
		C511.146,469.93,511.107,490.037,511.107,510.145z M257.702,331.212c0.106-3.303-3.136-6.817-6.408-6.946
		c-3.419-0.135-6.588,2.884-6.809,6.489c-0.229,3.721,2.808,7.005,6.516,7.046C254.479,337.84,257.588,334.784,257.702,331.212z
		 M501.12,597.904c3.278-0.056,6.571-3.431,6.597-6.767c0.025-3.479-3.088-6.727-6.504-6.789c-3.708-0.065-6.778,3.111-6.653,6.888
		C494.68,594.893,497.698,597.961,501.12,597.904z"/>
	<path fill="#000C7A" d="M291.049,220.842c6.631,0.301,11.8,3.128,16.039,8.039c0.911,1.055,2.533,1.764,3.946,2.049
		c1.724,0.348,3.612,0.325,5.359,0.039c6.412-1.051,10.844,1.66,15.283,6.195c20.495,20.933,41.299,41.563,62.11,62.183
		c1.136,1.125,3.336,1.653,5.042,1.655c72.021,0.081,144.042,0.07,216.063,0.069c5.127,0,10.261-0.135,15.38,0.053
		c2.301,0.084,3.631-0.718,5.071-2.477c8.601-10.482,24.313-10.036,32.088,0.779c5.97,8.301,4.646,20.804-3.561,26.933
		c-8.935,6.67-19.801,6.555-27.92-2.458c-1.974-2.191-3.801-2.86-6.527-2.858c-78.063,0.049-156.128-0.014-234.189,0.14
		c-5.875,0.012-10.101-1.502-14.336-5.843c-20.709-21.224-41.813-42.063-62.785-63.029c-2.344-2.343-9.223-1.791-11.126,0.841
		c-6.536,9.032-18.366,10.54-28.299,3.607c-8.202-5.726-10.176-18.153-4.327-26.725C278.415,224.09,284.069,221.223,291.049,220.842
		z M651,317.84c3.375,0.052,6.914-3.485,6.873-6.869c-0.039-3.197-3.502-6.612-6.74-6.646c-3.313-0.034-6.733,3.209-6.85,6.495
		C644.164,314.238,647.559,317.787,651,317.84z M297.631,240.906c-0.087-3.522-3.209-6.521-6.73-6.464
		c-3.399,0.056-6.62,3.377-6.522,6.727c0.1,3.421,3.37,6.552,6.78,6.491C294.59,247.598,297.716,244.337,297.631,240.906z"/>
	<path fill="#000C7A" d="M330.822,541.295c-6.349-0.295-11.451-2.889-15.291-7.756c-1.415-1.795-2.829-2.49-5.116-2.486
		c-30.623,0.078-61.245,0.01-91.867,0.148c-1.901,0.008-4.282,0.94-5.62,2.271c-21.439,21.287-42.717,42.738-64.087,64.099
		c-25.984,25.969-52.022,51.887-78.034,77.832c-5.98,5.963-11.922,11.967-17.941,17.891c-1.524,1.5-2.211,2.877-1.962,5.254
		c1,9.535-5.036,19.094-13.186,21.521c-10.277,3.063-19.882-0.779-24.623-10.302c-3.313-6.653-2.851-13.512,1.215-19.719
		c4.633-7.072,11.555-9.658,19.875-9c1.155,0.092,2.732-0.236,3.507-0.992c8.223-8.022,16.31-16.188,24.462-24.284
		c7.886-7.832,15.853-15.582,23.694-23.455c5.931-5.957,11.661-12.111,17.589-18.07c7.203-7.24,14.559-14.328,21.78-21.553
		c14.921-14.929,29.777-29.92,44.696-44.851c11.756-11.766,23.516-23.526,35.431-35.129c1.155-1.125,3.413-1.561,5.162-1.563
		c32.78-0.091,65.56-0.089,98.339-0.021c2.938,0.006,5.04-0.475,7.134-3.041c5.481-6.719,14.367-8.89,21.831-6.024
		c8.192,3.145,13.23,10.521,13.173,19.284c-0.058,8.443-5.24,15.804-13.42,18.683C335.433,540.781,333.076,540.891,330.822,541.295z
		 M331.101,514.418c-3.521-0.002-6.75,3.07-6.825,6.494c-0.077,3.455,3.494,6.943,6.98,6.82c3.454-0.121,6.584-3.359,6.553-6.781
		C337.776,517.461,334.656,514.422,331.101,514.418z M30.95,694.623c-3.675-0.031-6.546,2.781-6.559,6.426
		c-0.012,3.461,3.069,6.627,6.533,6.709c3.394,0.082,6.532-2.979,6.638-6.475C37.686,697.195,35.166,694.658,30.95,694.623z"/>
	<path fill="#000C7A" d="M329.158,591.066c-4.334-0.201-9.648-2.332-13.436-7.371c-1.63-2.17-3.485-2.771-6.147-2.763
		c-30.228,0.104-60.457,0.025-90.684,0.173c-2.019,0.01-4.556,0.932-5.965,2.325c-19.903,19.679-39.653,39.513-59.44,59.31
		c-16.537,16.545-33.046,33.119-49.646,49.6c-2.194,2.178-3.236,4.162-3.006,7.537c0.802,11.748-7.852,20.881-19.37,21.084
		c-11.476,0.203-20.626-8.826-20.49-20.217c0.143-11.902,11.186-21.285,22.995-19.728c1.334,0.179,3.244-0.393,4.179-1.325
		c32.215-32.154,64.339-64.396,96.489-96.615c6.501-6.514,13.104-12.926,19.548-19.494c1.824-1.859,3.676-2.658,6.35-2.65
		c33.178,0.101,66.356,0.047,99.535,0.109c2.328,0.006,3.913-0.482,5.44-2.477c7.202-9.398,19.572-8.957,26.555-4.324
		c8.884,5.895,11.565,17.76,6.283,27.213C345.297,586.918,337.802,591.072,329.158,591.066z M80.77,694.631
		c-3.64,0.053-6.664,3.104-6.545,6.6c0.116,3.398,3.443,6.558,6.849,6.503c3.444-0.056,6.728-3.283,6.721-6.605
		C87.787,697.291,84.845,694.57,80.77,694.631z M331.077,564.412c-3.249-0.016-6.809,3.408-6.799,6.541
		c0.01,3.49,2.989,6.463,6.596,6.58c3.754,0.119,6.946-2.896,6.948-6.57C337.823,567.678,334.479,564.428,331.077,564.412z"/>
	<path fill="#000C7A" d="M731.025,530.725c0.194,7.22-2.938,12.293-8.099,16.484c-1.057,0.859-1.854,2.682-1.873,4.074
		c-0.157,10.244,0.05,20.494-0.205,30.733c-0.051,2-1.17,4.38-2.563,5.869c-5.148,5.508-10.67,10.666-15.91,16.092
		c-0.84,0.869-1.35,2.437-1.35,3.683c-0.063,64.467-0.068,128.934,0.051,193.399c0.002,1.429,1.217,3.216,2.391,4.22
		c7.418,6.346,9.781,15.387,5.576,24.616c-3.121,6.853-10.434,11.796-19.785,11.164c-7.709-0.52-14.719-6.211-17.387-14.2
		c-2.281-6.83-0.104-15.822,5.635-20.232c2.978-2.289,3.523-4.75,3.521-8.137c-0.078-57.289-0.062-114.58-0.064-171.869
		c0-8.836-0.119-17.678,0.103-26.51c0.045-1.8,0.942-3.961,2.174-5.279c5.061-5.424,10.492-10.504,15.572-15.912
		c1.161-1.238,2.016-3.268,2.063-4.961c0.219-7.557,0.229-15.125-0.016-22.68c-0.053-1.593-1.107-3.617-2.357-4.625
		c-6.758-5.443-9.332-14.701-6.024-22.834c3.521-8.666,11.827-13.734,20.649-12.604
		C723.922,512.602,731.037,520.516,731.025,530.725z M690.947,827.625c3.551,0.033,6.733-2.91,6.895-6.377
		c0.156-3.297-3.518-6.93-6.932-6.857c-3.316,0.068-6.672,3.457-6.646,6.713C684.289,824.592,687.365,827.592,690.947,827.625z
		 M711.049,537.645c3.474,0.009,6.662-3.079,6.756-6.536c0.088-3.23-3.305-6.642-6.655-6.691c-3.666-0.057-6.466,2.795-6.48,6.603
		C704.652,534.992,707.199,537.635,711.049,537.645z"/>
	<path fill="#000C7A" d="M640.98,592.607c0-13.716,0.073-27.431-0.103-41.144c-0.02-1.592-1.033-3.619-2.252-4.672
		c-6.576-5.672-8.957-12.668-6.811-20.979c2.202-8.545,8.643-13.84,17.661-14.59c8.468-0.703,15.105,2.894,19.164,10.224
		c4.439,8.02,3.152,18.877-5.168,25.137c-2.004,1.508-2.545,3.088-2.543,5.447c0.029,29.729-0.104,59.457,0.019,89.186
		c0.014,3.324-1.211,5.543-3.354,7.664c-11.897,11.787-23.799,23.574-35.631,35.43c-0.695,0.695-0.99,1.964-1.133,3.011
		c-0.883,6.453,0.74,11.869,6.416,15.739c3.334,2.275,3.973,5.609,3.91,9.613c-0.242,15.762-0.07,31.529-0.14,47.295
		c-0.012,2.303,0.437,3.947,2.431,5.517c6.707,5.272,8.813,12.364,6.924,20.561c-2.215,9.596-10.531,14.191-16.67,14.92
		c-8.771,1.041-15.527-2.688-20.111-9.992c-5.109-8.146-2.545-19.576,5.201-25.916c1.148-0.938,2.141-2.817,2.158-4.274
		c0.16-14.228,0.104-28.453,0.092-42.683c-0.006-4.436-3.504-7.434-7.85-7.156c-8.009,0.511-14.623-2.284-19.015-9.178
		c-4.201-6.594-4.383-13.744-0.625-20.408c3.992-7.08,10.498-11.102,18.802-10.053c4.172,0.525,6.125-1.76,8.372-3.977
		c9.646-9.521,19.222-19.117,28.688-28.814c1-1.022,1.574-2.896,1.586-4.381c0.117-13.842,0.07-27.684,0.07-41.525
		C641.041,592.607,641.012,592.607,640.98,592.607z M651.027,524.436c-3.353-0.024-6.744,3.265-6.769,6.56
		c-0.022,3.414,3.062,6.504,6.623,6.635c3.631,0.131,7.064-3.158,6.988-6.695C657.801,527.648,654.445,524.461,651.027,524.436z
		 M601.15,684.236c-3.213-0.074-6.65,3.186-6.871,6.514c-0.213,3.188,3.475,7.072,6.723,7.086c3.322,0.014,6.676-3.205,6.813-6.543
		C607.959,687.805,604.664,684.314,601.15,684.236z M621.082,774.457c-3.438,0.02-6.758,3.201-6.795,6.512
		c-0.043,3.574,3.305,6.791,6.979,6.709c3.586-0.082,6.603-3.158,6.554-6.682C627.768,777.58,624.529,774.436,621.082,774.457z"/>
	<path fill="#000C7A" d="M361.065,720.531c-0.001,19.483,0.076,38.969-0.081,58.451c-0.025,3.088,0.667,5.311,3.15,7.157
		c8.487,6.316,9.637,21.304,0.383,29.8c-6.491,5.961-15.933,6.864-24.542,1.942c-6.473-3.699-10.143-13.371-8.397-21.086
		c1.073-4.746,3.367-8.594,7.158-11.416c1.918-1.428,2.361-2.949,2.357-5.156c-0.058-32.813-0.04-65.631-0.041-98.444
		c0-3.972-0.187-7.951,0.045-11.908c0.186-3.148-0.711-5.418-3.044-7.682c-9.904-9.615-19.547-19.5-29.415-29.152
		c-1.117-1.094-3.05-1.9-4.611-1.91c-17.56-0.129-35.123,0.01-52.683-0.164c-2.7-0.027-3.868,1.451-5.252,3.063
		c-6.277,7.311-16.111,9.082-25.082,4.498c-7.048-3.604-11.605-13.455-9.552-21.693c2.006-8.049,6.924-13.443,15.399-15.219
		c7.912-1.658,14.462,0.633,19.477,6.756c1.774,2.166,3.506,2.737,6.114,2.727c19.612-0.092,39.225,0.004,58.837-0.098
		c2.756-0.017,4.758,0.676,6.729,2.686c13.438,13.691,27.046,27.216,40.438,40.949c1.41,1.445,2.482,3.914,2.501,5.918
		C361.138,680.541,361.066,700.537,361.065,720.531z M230.892,627.797c3.411,0.092,6.642-2.949,6.87-6.467
		c0.21-3.242-3.399-7.064-6.69-7.086c-3.412-0.021-6.463,3.125-6.522,6.729C224.489,624.605,227.365,627.699,230.892,627.797z
		 M357.799,801.102c0.076-3.325-3.184-6.608-6.617-6.668c-3.359-0.059-6.814,3.127-6.941,6.402c-0.13,3.35,2.988,6.607,6.505,6.793
		C354.487,807.83,357.715,804.842,357.799,801.102z"/>
	<path fill="#000C7A" d="M961.025,190.911c0.018,8.228-5.32,16.262-12.353,18.591c-9.633,3.19-18.326,0.601-23.946-6.83
		c-0.775-1.023-2.714-1.633-4.115-1.641c-19.861-0.106-39.726-0.139-59.584-0.009c-3.064,0.02-5.271-0.792-7.379-3.029
		c-4.82-5.106-9.795-10.082-14.937-14.863c-1.297-1.205-3.459-2.076-5.229-2.084c-27.271-0.132-54.539-0.097-81.812-0.098
		c-9.844,0-19.688,0.058-29.528-0.032c-2.318-0.021-3.861,0.558-5.479,2.465c-6.49,7.655-15.08,9.568-24.174,5.798
		c-6.791-2.815-11.851-11.286-11.513-19.274c0.339-7.982,5.826-15.064,13.906-17.944c6.988-2.492,15.75-0.341,20.607,5.459
		c2.246,2.683,4.613,3.633,8.141,3.624c39.713-0.104,79.424-0.032,119.135,0.097c1.439,0.005,3.211,0.742,4.254,1.738
		c5.449,5.203,10.648,10.67,16.101,15.873c1.154,1.102,2.998,2.086,4.531,2.098c17.938,0.143,35.879,0.127,53.817,0.001
		c1.215-0.009,2.787-0.958,3.576-1.957c5.299-6.71,14.428-9.615,22.375-6.911C955.541,174.748,961.008,182.353,961.025,190.911z
		 M940.953,197.79c3.154,0.096,6.705-3.266,6.891-6.524c0.193-3.418-3.203-7.011-6.688-7.074c-3.451-0.063-6.873,3.357-6.894,6.887
		C934.244,194.312,937.609,197.688,940.953,197.79z M694.627,171.115c0.01,3.75,2.846,6.669,6.48,6.672
		c3.315,0.003,6.62-3.34,6.643-6.72c0.021-3.451-3.154-6.82-6.469-6.86C697.518,164.162,694.615,167.175,694.627,171.115z"/>
	<path fill="#000C7A" d="M810.789,631.055c-10.381-0.002-20.764,0.076-31.141-0.088c-1.56-0.022-3.47-0.803-4.589-1.883
		c-7.534-7.262-14.952-14.648-22.262-22.139c-1.008-1.035-1.67-2.849-1.703-4.318c-0.172-7.301,0.013-14.609-0.166-21.91
		c-0.028-1.231-0.908-2.834-1.903-3.59c-9.183-6.961-10.732-18.852-3.58-28.604c5.852-7.982,18.871-9.794,27.196-3.785
		c9.201,6.641,11.295,18.725,4.679,27.713c-1.336,1.813-3.228,3.205-4.732,4.904c-0.684,0.772-1.125,1.793-1.539,2.76
		c-0.186,0.434-0.031,1.012-0.033,1.522c-0.071,16.785,0.324,17.695,13.32,28.318c0.871,0.713,2.295,1.045,3.465,1.051
		c15.635,0.066,31.271,0.08,46.904-0.022c1.205-0.009,2.617-0.729,3.563-1.547c2.119-1.834,3.746-4.322,6.035-5.859
		c6.063-4.072,7.123-9.664,6.838-16.521c-0.485-11.756-0.186-23.547-0.086-35.321c0.019-2.23-0.539-3.691-2.377-5.156
		c-7.82-6.232-9.809-16.875-5.029-25.555c4.373-7.938,14.705-11.813,24.005-9.002c8.35,2.522,14.467,12.11,13.295,21.432
		c-0.656,5.199-2.849,9.893-7.287,13.01c-2.172,1.523-2.707,3.271-2.693,5.773c0.097,16.531,0.121,33.063-0.049,49.596
		c-0.021,1.908-0.912,4.266-2.221,5.629c-6.902,7.211-13.988,14.254-21.216,21.139c-1.379,1.314-3.661,2.312-5.553,2.353
		C831.553,631.174,821.17,631.057,810.789,631.055z M867.898,530.818c-0.109-3.259-3.564-6.433-6.941-6.377
		c-3.455,0.059-6.613,3.262-6.576,6.67c0.037,3.504,3.133,6.537,6.66,6.522C864.73,537.623,868.018,534.355,867.898,530.818z
		 M760.922,567.834c3.535,0.076,6.742-3.201,6.728-6.873c-0.013-3.438-3.214-6.627-6.613-6.592
		c-3.457,0.033-6.537,3.186-6.519,6.668C754.537,564.59,757.525,567.762,760.922,567.834z"/>
	<path fill="#000C7A" d="M821.104,421.195c-0.026,7.528-5.18,15.573-11.573,18.067c-8.797,3.433-16.955,1.99-22.771-4.616
		c-2.512-2.854-5.045-3.795-8.805-3.785c-51.65,0.138-103.299,0.105-154.947,0.055c-2.682-0.003-4.539,0.556-6.531,2.75
		c-10.028,11.037-25.811,9.476-33.026-3.001c-3.922-6.776-2.988-16.505,2.131-22.249c6.252-7.014,15.051-9.457,22.756-5.823
		c3.023,1.426,5.883,3.567,8.223,5.965c1.812,1.857,3.486,2.456,5.949,2.453c52.043-0.058,104.086-0.076,156.131,0.048
		c3.355,0.009,5.613-0.831,7.812-3.397c5.475-6.399,13.748-7.902,21.606-5.372C815.963,404.835,821.717,414.601,821.104,421.195z
		 M607.824,420.867c-0.109-3.521-3.633-6.812-7.086-6.616c-3.234,0.182-6.533,3.716-6.459,6.917c0.071,3.125,3.67,6.674,6.758,6.67
		C604.414,427.833,607.928,424.223,607.824,420.867z M794.463,420.942c-0.053,3.499,3,6.745,6.451,6.858
		c3.359,0.111,6.566-3.017,6.705-6.539c0.147-3.721-2.935-7.008-6.582-7.018C797.646,414.235,794.518,417.423,794.463,420.942z"/>
	<path fill="#000C7A" d="M311.003,671.195c-0.007,7.561-5.1,15.569-11.507,18.096c-8.767,3.461-17.449,1.855-23.083-4.861
		c-2.306-2.748-4.654-3.545-8.086-3.533c-33.076,0.123-66.154,0.101-99.23,0.029c-2.582-0.006-4.568,0.389-6.317,2.558
		c-1.917,2.375-4.282,4.399-6.542,6.479c-3.458,3.182-6.132,6.105-5.454,11.789c0.871,7.297-5.246,15.146-12.131,17.918
		c-7.527,3.033-16.65,1.174-22.474-5.268c-5.284-5.845-6.333-12.707-3.836-20.371c2.858-8.775,13.519-14.342,22.012-12.953
		c1.253,0.205,3.069-0.707,4.072-1.676c5.519-5.32,10.769-10.923,16.341-16.185c1.3-1.229,3.49-2.131,5.275-2.139
		c36.41-0.125,72.819-0.133,109.229-0.035c2.922,0.008,4.869-0.785,6.783-3.035c5.629-6.612,14.054-8.651,21.867-5.664
		C306.13,655.482,311.012,662.518,311.003,671.195z M130.911,694.602c-3.726,0.033-6.653,2.9-6.644,6.509
		c0.008,3.336,3.374,6.678,6.701,6.651c3.291-0.024,6.847-3.377,6.872-6.477C137.869,697.527,134.802,694.568,130.911,694.602z
		 M290.897,664.283c-3.372,0.098-6.563,3.426-6.522,6.801c0.04,3.34,3.351,6.723,6.612,6.756c3.47,0.033,6.772-3.461,6.657-7.047
		C297.531,667.273,294.327,664.184,290.897,664.283z"/>
	<path fill="#000C7A" d="M440.974,751.02c-8.741-0.01-16.21-5.469-19.077-13.944c-2.579-7.627,0.485-17.021,6.981-22.045
		c1.009-0.781,1.976-2.347,1.995-3.563c0.163-10.121,0.178-20.248,0.012-30.371c-0.022-1.397-0.925-3.221-2.019-4.098
		c-10.863-8.715-10.189-23.986,0.318-32.195c0.918-0.717,1.691-2.239,1.707-3.399c0.132-10.252,0.132-20.506-0.004-30.756
		c-0.015-1.156-0.821-2.63-1.732-3.394c-11.322-9.49-10.889-24.473,1.042-32.986c7.343-5.239,18.622-3.957,25.264,2.875
		c6.568,6.757,7.504,18.271,1.924,25.39c-1.479,1.887-3.454,3.381-5.055,5.186c-0.653,0.738-1.292,1.818-1.3,2.748
		c-0.093,10.381-0.104,20.762,0.014,31.144c0.011,1.004,0.804,2.295,1.631,2.946c11.077,8.734,11.159,23.688,0.216,32.718
		c-0.99,0.815-1.813,2.463-1.833,3.735c-0.149,10.123-0.14,20.248-0.012,30.371c0.015,1.141,0.771,2.678,1.683,3.338
		c7.194,5.201,9.9,13.953,6.965,23.199C457.243,745.643,449.546,751.027,440.974,751.02z M440.878,667.789
		c3.169,0.104,6.731-3.186,6.958-6.426c0.22-3.154-3.441-7.082-6.686-7.17c-3.176-0.088-6.721,3.241-6.92,6.496
		C434.025,664.08,437.391,667.674,440.878,667.789z M441.214,724.65c-3.506-0.259-6.703,2.485-6.983,5.998
		c-0.269,3.354,3.011,6.942,6.541,7.157c3.197,0.195,6.756-2.965,7.037-6.252C448.118,727.965,445.237,724.949,441.214,724.65z
		 M447.815,591.223c0.044-3.219-3.277-6.733-6.512-6.893c-3.442-0.168-7.012,3.184-7.08,6.648c-0.067,3.387,3.435,6.92,6.858,6.92
		C444.259,597.902,447.77,594.42,447.815,591.223z"/>
	<path fill="#000C7A" d="M160.957,359.549c0.236-4.708,2.484-9.983,7.36-13.865c2.11-1.68,2.868-3.493,2.77-6.187
		c-0.221-6.013,0.064-12.045-0.165-18.058c-0.057-1.489-0.921-3.354-2.039-4.328c-5.955-5.184-8.558-11.545-7.843-19.403
		c0.104-1.146-0.407-2.908-1.252-3.494c-8.093-5.609-9.789-13.403-8.882-22.662c0.633-6.472,0.028-13.058,0.169-19.589
		c0.051-2.352-0.588-3.919-2.479-5.471c-7.874-6.46-9.772-15.883-5.249-24.738c4.295-8.411,13.622-12.624,23.015-9.996
		c6.967,1.95,11.921,6.471,13.811,13.573c2.143,8.053,0.476,15.371-6.189,20.754c-2.411,1.947-3.097,3.856-3.024,6.74
		c0.179,7.163,0.023,14.333,0.075,21.5c0.03,4.147,3.777,7.345,7.89,6.865c8.728-1.017,17.038,3.86,20.67,12.129
		c3.342,7.607,0.916,17.667-6.003,23.193c-2.087,1.667-2.677,3.308-2.62,5.775c0.14,6.018-0.114,12.048,0.146,18.059
		c0.07,1.622,1.017,3.63,2.229,4.712c9.375,8.375,10.292,21.076,1.956,29.833c-5.65,5.936-13.757,7.716-21.437,4.71
		C166.017,376.53,160.957,369.245,160.957,359.549z M160.908,224.519c-3.535,0.059-6.758,3.171-6.752,6.519
		c0.006,3.242,3.836,6.865,7.099,6.716c3.438-0.157,6.576-3.486,6.467-6.86C167.607,227.35,164.516,224.458,160.908,224.519z
		 M181.088,354.308c-3.572-0.023-6.44,2.893-6.483,6.593c-0.045,3.943,2.914,7.084,6.557,6.962c3.205-0.107,6.559-3.618,6.556-6.864
		C187.715,357.673,184.403,354.329,181.088,354.308z M181.003,294.382c-3.839,0.077-6.552,3.018-6.412,6.949
		c0.14,3.915,2.766,6.384,6.655,6.259c3.488-0.112,6.521-3.248,6.488-6.706C187.703,297.572,184.331,294.315,181.003,294.382z"/>
	<path fill="#000C7A" d="M761.152,701.359c0,0.385,0.024,0.771-0.004,1.151c-0.47,6.127,0.43,11.104,5.211,16.271
		c9.67,10.449,4.276,27.291-9.406,31.41c-9.349,2.813-18.572-0.527-23.842-10.314c-4.275-7.939-1.849-18.627,5.373-24.617
		c1.229-1.02,2.274-2.979,2.346-4.555c0.271-6.137,0.016-12.295,0.17-18.441c0.063-2.496-0.643-4.176-2.594-5.893
		c-10.201-8.963-9.91-22.629,0.475-31.252c7.426-6.164,20.32-5.365,26.463,2.051c2.445,2.951,4.869,4.301,8.674,3.881
		c3.164-0.35,6.402-0.178,9.601-0.049c5.612,0.225,10.313-0.055,14.793-5.127c5.971-6.76,17.733-6.396,24.647-0.877
		c7.789,6.219,10.326,16.611,6.045,24.758c-4.768,9.07-14.043,13.504-23.385,10.275c-3.893-1.347-7.111-4.605-10.699-6.898
		c-1.35-0.861-2.856-2.006-4.327-2.057c-6.396-0.229-12.81-0.033-19.212-0.142c-2.096-0.034-3.176,1.142-4.76,2.242
		c-5.879,4.092-6.022,9.785-5.576,15.877C761.201,699.818,761.152,700.59,761.152,701.359z M817.859,671.158
		c0.021-3.615-3.254-6.933-6.806-6.889c-3.407,0.041-6.596,3.241-6.616,6.651c-0.023,3.523,3.432,7.064,6.786,6.957
		C814.551,677.773,817.84,674.441,817.859,671.158z M751.066,677.848c3.225,0.021,6.651-3.391,6.721-6.688
		c0.07-3.351-3.146-6.781-6.469-6.898c-3.687-0.129-6.713,2.965-6.697,6.847C744.637,674.881,747.451,677.824,751.066,677.848z
		 M757.76,730.965c-0.135-3.75-2.981-6.391-6.813-6.317c-3.955,0.075-6.373,2.604-6.312,6.602c0.06,3.705,3.08,6.686,6.617,6.527
		C754.646,737.621,757.875,734.24,757.76,730.965z"/>
	<path fill="#000C7A" d="M640.98,851.078c0.002,8.465-4.695,15.277-12.826,18.609c-7.258,2.973-16.033,1.288-21.326-4.865
		c-2.641-3.068-5.355-3.854-9.152-3.828c-21.893,0.152-43.785,0.117-65.678,0.014c-2.416-0.01-3.994,0.666-5.496,2.539
		c-5.178,6.461-13.354,9.016-20.91,6.756c-7.963-2.381-13.89-9.16-14.568-17.014c-0.762-8.795,3.076-15.434,10.456-19.869
		c7.995-4.809,19.206-2.416,25.176,5.252c1.438,1.848,2.838,2.469,5.086,2.463c22.904-0.072,45.811-0.057,68.717-0.014
		c2.025,0.004,3.31-0.457,4.738-2.25c6.002-7.523,14.479-9.582,23.758-6.254C635.773,835.063,640.98,843.057,640.98,851.078z
		 M620.76,857.822c3.355,0.205,6.729-2.824,7.031-6.318c0.297-3.418-3.088-7.1-6.604-7.184c-3.203-0.076-6.837,3.358-6.939,6.563
		C614.143,854.154,617.395,857.617,620.76,857.822z M511.059,844.375c-3.42-0.002-6.598,3.24-6.594,6.729
		c0.006,3.515,3.139,6.72,6.564,6.712c3.412-0.007,6.612-3.238,6.639-6.699C517.691,847.83,514.305,844.379,511.059,844.375z"/>
	<path fill="#000C7A" d="M571.084,351.238c0.234,6.868-4.938,15.882-13.406,18.665c-7.555,2.482-15.992,0.657-21.24-5.525
		c-2.065-2.435-4.204-3.419-7.463-3.396c-22.047,0.16-44.095,0.136-66.142,0.031c-2.896-0.014-4.875,0.716-6.813,3.006
		c-6.315,7.458-16.128,9.074-25.039,4.478c-7.171-3.699-11.476-13.5-9.311-22.118c1.878-7.475,6.523-12.556,14.192-14.583
		c7.616-2.013,14.346-0.296,19.527,5.508c2.528,2.832,4.927,3.879,8.695,3.844c21.79-0.202,43.581-0.132,65.372-0.051
		c2.582,0.01,4.338-0.553,6.164-2.671c6.44-7.471,14.887-9.291,23.893-5.653C566.111,335.438,571.16,343.496,571.084,351.238z
		 M441.137,357.81c3.207-0.033,6.625-3.457,6.68-6.689c0.055-3.27-3.711-7.002-6.946-6.882c-3.241,0.12-6.643,3.57-6.658,6.753
		C434.194,354.451,437.645,357.847,441.137,357.81z M550.717,357.801c3.459,0.161,6.609-2.745,6.879-6.344
		c0.275-3.678-2.752-7.08-6.426-7.218c-3.191-0.12-6.635,3.224-6.773,6.578C544.26,354.147,547.428,357.648,550.717,357.801z"/>
	<path fill="#000C7A" d="M811.979,750.424c-8.938,1.514-17.1-5.44-19.442-11.852c-3.791-10.367,0.68-19.558,6.656-23.66
		c8.205-5.639,17.543-5.359,24.836,0.861c5.274,4.498,7.717,10.473,6.881,17.459c-0.31,2.584,0.563,4.27,2.332,6.002
		c8.957,8.764,17.85,17.594,26.645,26.518c0.824,0.834,1.131,2.486,1.144,3.764c0.096,9.865,0.16,19.734,0.002,29.601
		c-0.047,2.908,0.545,5.143,3.002,6.865c8.354,5.854,9.984,21.311,0.393,30.063c-10.178,9.291-27.977,4.924-32.055-8.207
		c-2.916-9.389-0.707-16.641,6.754-22.957c0.99-0.836,1.854-2.436,1.881-3.699c0.172-7.813,0.18-15.635,0.004-23.446
		c-0.031-1.453-0.813-3.207-1.826-4.269c-6.877-7.194-13.793-14.364-20.995-21.229C816.799,750.918,814.082,750.994,811.979,750.424
		z M817.861,731.057c0.002-3.592-2.898-6.412-6.642-6.457c-3.764-0.047-6.629,2.662-6.733,6.367
		c-0.104,3.603,3.221,6.938,6.803,6.83C814.762,737.691,817.859,734.516,817.861,731.057z M857.838,821.201
		c0.107-3.271-3.098-6.65-6.479-6.834c-3.22-0.178-6.771,3.076-6.951,6.363c-0.197,3.592,2.594,6.625,6.272,6.823
		C854.484,827.758,857.721,824.887,857.838,821.201z"/>
	<path fill="#000C7A" d="M830.861,312.794c0.686-3.012-0.515-4.711-2.91-6.697c-8.926-7.401-9.168-21.03-0.953-29.306
		c8.154-8.213,21.695-7.673,29.33,1.171c7.432,8.609,5.963,21.813-3.049,29.023c-1.15,0.921-2.349,2.948-2.135,4.232
		c1.727,10.402-1.957,18.315-10.345,24.36c-1.229,0.888-2.133,2.221-3.313,3.197c-4.57,3.782-7.177,7.845-6.812,14.538
		c0.476,8.689-8.362,16.761-17.244,17.617c-9.739,0.94-18.524-4.64-21.17-13.444c-4.502-14.995,6.863-28.398,22.127-26.197
		c1.039,0.15,2.517-0.325,3.275-1.049c3.6-3.43,7.156-6.927,10.445-10.65c1.6-1.811,2.58-4.169,3.84-6.281
		C831.588,313.138,831.225,312.966,830.861,312.794z M811.014,357.809c3.361,0.037,6.703-3.167,6.842-6.56
		c0.146-3.495-3.284-7.038-6.795-7.023c-3.284,0.015-6.649,3.475-6.612,6.797C804.486,354.492,807.66,357.772,811.014,357.809z
		 M847.918,290.93c-0.027-3.229-3.479-6.611-6.77-6.635c-3.316-0.024-6.859,3.655-6.759,7.017c0.099,3.182,3.255,6.225,6.55,6.311
		C844.502,297.716,847.945,294.413,847.918,290.93z"/>
	<path fill="#000C7A" d="M491.945,231.041c-7.717,0.06-12.574-3.048-16.76-7.769c-1.012-1.142-2.82-2.191-4.285-2.22
		c-9.737-0.194-19.481-0.009-29.22-0.166c-2.33-0.037-3.59,0.797-4.997,2.545c-7.801,9.695-20.972,10.317-30.056,1.58
		c-7.864-7.563-7.383-21.026,1.031-28.853c8.246-7.668,21.115-6.844,28.601,2.099c1.782,2.129,3.531,2.775,6.15,2.737
		c9.481-0.137,18.97,0.035,28.45-0.15c1.542-0.03,3.594-0.857,4.498-2.024c4.977-6.42,11.526-8.758,19.257-7.532
		c7.961,1.263,14.939,8.073,16.217,15.97c1.244,7.689-1.084,14.285-7.414,19.334C499.646,229.604,495.541,231.159,491.945,231.041z
		 M421.132,217.748c3.252-0.083,6.69-3.525,6.711-6.721c0.024-3.57-3.353-6.612-7.132-6.424c-3.687,0.184-6.619,3.194-6.47,6.645
		C414.382,214.522,417.889,217.829,421.132,217.748z M484.51,210.667c-0.124,3.515,2.797,6.841,6.208,7.068
		c3.408,0.227,6.945-3.169,6.986-6.708c0.038-3.366-2.813-6.306-6.272-6.466C487.765,204.392,484.634,207.153,484.51,210.667z"/>
	<path fill="#000C7A" d="M771.039,261.266c-0.014,6.429-2.811,11.48-7.709,15.489c-0.297,0.243-0.66,0.409-0.934,0.672
		c-2.24,2.158-1.679,15.56,0.729,17.613c9.629,8.21,10.748,19.384,2.912,29.081c-6.252,7.737-17.439,9.153-26.224,3.319
		c-8.354-5.551-11.354-16.82-6.641-25.317c1.045-1.886,2.4-3.62,3.756-5.309c1.232-1.537,3.65-2.813,3.816-4.386
		c0.479-4.549,0.16-9.193-0.045-13.791c-0.027-0.629-1.138-1.268-1.826-1.8c-7.539-5.83-10.004-15.937-5.932-24.411
		c3.926-8.171,13.553-13.127,21.905-11.276C764.365,243.257,771.07,251.599,771.039,261.266z M750.91,317.811
		c3.563,0.088,6.932-3.271,6.873-6.861c-0.053-3.37-3.281-6.554-6.707-6.617c-3.359-0.062-6.293,2.781-6.474,6.272
		C744.404,314.491,747.23,317.72,750.91,317.811z M751.188,267.604c3.445-0.036,6.619-3.241,6.576-6.64
		c-0.045-3.62-3.201-6.586-7.035-6.611c-3.196-0.021-6.163,3.084-6.133,6.419C744.635,264.742,747.434,267.644,751.188,267.604z"/>
	<path fill="#000C7A" d="M440.838,541.016c-8.771-0.043-15.974-5.391-18.947-14.071c-2.534-7.404,0.143-16.304,6.623-21.302
		c1.792-1.381,2.773-2.778,2.482-5.095c-0.19-1.512-0.119-3.073-0.013-4.603c0.306-4.428-0.394-7.836-4.311-11.238
		c-7.348-6.381-7.488-17.51-1.51-25.846c5.187-7.233,15.987-10.006,24.065-6.178c9.206,4.363,13.635,13.958,11.017,23.546
		c-1.261,4.617-3.629,8.365-7.59,11.08c-0.315,0.217-0.663,0.412-0.918,0.689c-1.894,2.063-0.757,15.404,1.441,17.089
		c7.267,5.566,9.572,14.541,6.19,24.094C456.965,535.973,449.007,541.055,440.838,541.016z M441.081,464.55
		c-3.693-0.017-6.729,2.786-6.854,6.327c-0.121,3.41,3.4,6.9,6.907,6.846c3.349-0.052,6.726-3.429,6.701-6.703
		C447.81,467.554,444.691,464.566,441.081,464.55z M440.965,514.408c-3.513,0.049-6.729,3.188-6.742,6.58
		c-0.014,3.524,3.479,6.848,7.037,6.697c3.478-0.148,6.649-3.443,6.553-6.808C447.711,517.412,444.482,514.359,440.965,514.408z"/>
	<path fill="#000C7A" d="M760.979,501.001c-10.948-0.005-20.024-9.067-20.016-19.987c0.008-10.91,9.103-19.992,20.025-19.999
		c11.067-0.007,20.104,8.906,20.139,19.866C781.164,492.049,772.195,501.005,760.979,501.001z M761.211,474.574
		c-3.764-0.084-6.65,2.663-6.684,6.363c-0.035,3.614,2.842,6.651,6.422,6.782c3.479,0.128,6.615-2.891,6.729-6.482
		C767.793,477.684,764.854,474.656,761.211,474.574z"/>
	<path fill="#000C7A" d="M620.984,471.376c-0.099,11.18-8.879,19.698-20.177,19.571c-11.098-0.125-19.897-9.056-19.805-20.097
		c0.094-10.992,9.408-20.031,20.5-19.894C612.412,451.095,621.082,460.181,620.984,471.376z M601.127,477.696
		c3.439-0.061,6.709-3.292,6.688-6.614c-0.025-3.785-3.062-6.635-6.972-6.542c-3.565,0.083-6.666,3.226-6.553,6.644
		C594.398,474.459,597.857,477.753,601.127,477.696z"/>
	<path fill="#000C7A" d="M901.08,801.102c-10.91-0.006-19.951-9.004-20.012-19.916c-0.062-11.297,8.844-20.129,20.211-20.051
		c11.129,0.078,19.791,8.859,19.766,20.043C921.018,792.137,912.031,801.105,901.08,801.102z M900.895,774.463
		c-3.432,0.1-6.641,3.357-6.602,6.705c0.039,3.404,3.275,6.521,6.766,6.512c3.611-0.01,7.021-3.442,6.832-6.885
		C907.711,777.477,904.27,774.363,900.895,774.463z"/>
	<path fill="#000C7A" d="M110.726,551.084c-10.896-0.096-19.793-9.285-19.681-20.33c0.111-10.928,8.931-19.631,19.916-19.652
		c11.331-0.02,20.185,8.916,20.071,20.254C130.922,542.266,121.748,551.178,110.726,551.084z M111.136,537.592
		c3.504-0.041,6.733-3.174,6.734-6.537c0.001-3.387-3.613-6.762-7.106-6.633c-3.242,0.117-6.411,3.264-6.48,6.432
		C104.203,534.502,107.391,537.637,111.136,537.592z"/>
	<path fill="#000C7A" d="M581,781.311c-0.023,10.91-9.09,19.853-20.086,19.808c-10.855-0.045-19.9-9.178-19.896-20.09
		c0.005-11.052,8.826-19.83,19.994-19.894C572.352,761.07,581.023,769.822,581,781.311z M567.832,780.904
		c-0.082-3.537-3.119-6.386-6.797-6.375c-3.635,0.012-6.642,2.969-6.639,6.53c0.002,3.488,3.096,6.564,6.618,6.582
		C564.91,787.662,567.922,784.686,567.832,780.904z"/>
	<path fill="#000C7A" d="M771.006,361.288c-0.041,10.83-8.936,19.744-19.715,19.759c-11.197,0.016-20.283-8.984-20.271-20.078
		c0.013-10.913,9.064-19.928,20.009-19.926C762.291,341.045,771.047,349.92,771.006,361.288z M757.783,360.87
		c-0.117-3.489-3.322-6.596-6.767-6.558c-3.76,0.042-6.575,3.188-6.358,7.104c0.205,3.709,3.313,6.688,6.725,6.441
		C754.666,367.62,757.893,364.097,757.783,360.87z"/>
	<path fill="#000C7A" d="M720.967,361.193c-0.082,11.185-8.924,19.924-20.076,19.849c-11.082-0.074-20.022-9.303-19.914-20.551
		c0.104-10.57,9.349-19.457,20.222-19.438C712.33,341.073,721.051,349.957,720.967,361.193z M694.607,360.839
		c-0.068,3.943,2.836,7.058,6.551,7.026c3.156-0.026,6.529-3.508,6.586-6.798c0.059-3.326-3.185-6.69-6.541-6.788
		C697.713,354.177,694.67,357.203,694.607,360.839z"/>
	<path fill="#000C7A" d="M131.024,440.897c0.04,11.115-8.817,20.102-19.841,20.13c-11.197,0.028-20.055-8.703-20.137-19.851
		c-0.08-11.01,8.89-20.111,19.86-20.148C121.921,420.99,130.985,429.942,131.024,440.897z M117.877,441.012
		c-0.012-3.386-3.611-6.875-7.004-6.789c-3.285,0.083-6.556,3.443-6.586,6.766c-0.031,3.438,3.547,6.961,6.927,6.817
		C114.362,447.674,117.887,444.079,117.877,441.012z"/>
	<path fill="#000C7A" d="M650.514,381.019c-10.137,0.215-19.112-8.948-19.336-19.736c-0.225-10.958,8.635-20.094,19.633-20.243
		c10.851-0.147,19.986,8.556,20.229,19.268C671.297,371.674,662.283,380.769,650.514,381.019z M657.887,361.146
		c0.088-3.482-3.311-7.006-6.776-7.026c-3.525-0.021-6.961,3.331-6.99,6.822c-0.031,3.463,3.315,6.934,6.799,7.049
		C654.334,368.104,657.799,364.701,657.887,361.146z"/>
	<path fill="#000C7A" d="M21.006,941.811c0.005-6.795,0.128-13.594-0.091-20.381c-0.048-1.489-0.943-3.364-2.073-4.34
		c-8.199-7.068-10.235-18.35-4.643-26.92c5.777-8.854,17.271-11.996,26.748-6.521c10.829,6.256,14.624,21.315,3.829,31.7
		c-2.885,2.773-3.936,5.388-3.842,9.23c0.239,9.738,0.068,19.484,0.082,29.229c0.006,4.396,2.866,7.191,7.327,7.216
		c1.667,0.01,3.334-0.037,5,0.012c5.666,0.162,10.499-0.041,15.128-5.125c6.443-7.078,17.085-6.438,25.237-0.303
		c7.154,5.383,9.281,15.221,5.248,24.27c-3.553,7.974-12.597,12.328-21.67,10.783c-4.987-0.848-8.886-3.281-11.8-7.18
		c-1.498-2.002-3.093-2.558-5.446-2.509c-6.792,0.138-13.594,0.188-20.38-0.043c-1.685-0.059-3.692-0.928-4.927-2.088
		c-4.665-4.381-10.764-8.313-13.095-13.789c-2.27-5.334-0.587-12.35-0.635-18.627C20.991,944.887,21.001,943.348,21.006,941.811z
		 M80.797,964.332c-3.274,0.02-6.513,3.123-6.566,6.293c-0.064,3.793,3.31,7.229,6.991,7.119c3.438-0.103,6.611-3.342,6.568-6.707
		C87.743,967.43,84.49,964.311,80.797,964.332z M30.883,894.268c-3.254,0.068-6.517,3.49-6.521,6.839
		c-0.003,3.237,3.417,6.743,6.61,6.772c3.583,0.031,6.707-3.33,6.571-7.07C37.412,897.182,34.368,894.193,30.883,894.268z"/>
	<path fill="#000C7A" d="M131.746,831.059c-7.08-0.053-12.107-2.543-15.958-7.209c-1.609-1.946-3.26-2.799-5.837-2.784
		c-19.341,0.104-38.683,0.08-58.024,0.022c-2.314-0.006-3.988,0.439-5.526,2.494c-5.307,7.084-15.07,9.463-23.075,5.934
		c-8.557-3.771-13.376-12.146-12.073-20.973c1.291-8.74,6.119-14.473,14.703-16.66c8.668-2.211,15.769,0.381,21.291,7.502
		c0.71,0.916,2.28,1.646,3.456,1.652c20.11,0.1,40.22,0.123,60.329-0.035c1.425-0.012,3.185-1.248,4.203-2.424
		c8.783-10.145,24.308-9.982,31.92,0.596c4.833,6.717,5.361,14.17,1.523,21.338C144.999,827.377,138.838,831.041,131.746,831.059z
		 M137.821,810.846c-0.116-3.287-3.541-6.471-6.884-6.399c-3.424,0.071-6.673,3.287-6.662,6.588
		c0.012,3.584,3.333,6.895,6.844,6.822C134.643,817.783,137.944,814.33,137.821,810.846z M31.056,804.436
		c-3.429-0.051-6.64,3.105-6.69,6.578c-0.05,3.435,3.062,6.742,6.431,6.838c3.67,0.104,6.841-3.059,6.815-6.797
		C37.587,807.414,34.691,804.49,31.056,804.436z"/>
</g>
</svg>
